<svg width="4014" height="4032" xmlns="http://www.w3.org/2000/svg" xmlns:xlink="http://www.w3.org/1999/xlink" xml:space="preserve" overflow="hidden"><defs><clipPath id="clip0"><rect x="-293" y="-91" width="4014" height="4032"/></clipPath><clipPath id="clip1"><rect x="18" y="1531" width="142" height="141"/></clipPath><clipPath id="clip2"><rect x="18" y="1531" width="142" height="141"/></clipPath><clipPath id="clip3"><rect x="18" y="1531" width="142" height="141"/></clipPath><clipPath id="clip4"><rect x="18" y="1057" width="142" height="141"/></clipPath><clipPath id="clip5"><rect x="18" y="1057" width="142" height="141"/></clipPath><clipPath id="clip6"><rect x="18" y="1057" width="142" height="141"/></clipPath><clipPath id="clip7"><rect x="17" y="476" width="143" height="142"/></clipPath><clipPath id="clip8"><rect x="17" y="476" width="143" height="142"/></clipPath><clipPath id="clip9"><rect x="17" y="476" width="143" height="142"/></clipPath></defs><g clip-path="url(#clip0)" transform="translate(293 91)"><path d="M-276.5 1744C-276.5 1724.95-261.053 1709.5-241.999 1709.5L415.999 1709.5C435.054 1709.5 450.5 1724.95 450.5 1744L450.5 1882C450.5 1901.05 435.054 1916.5 415.999 1916.5L-241.999 1916.5C-261.053 1916.5-276.5 1901.05-276.5 1882Z" stroke="#44546A" stroke-width="12.6042" stroke-linecap="butt" stroke-linejoin="round" stroke-miterlimit="10" stroke-opacity="1" fill="#F9766D" fill-rule="evenodd" fill-opacity="0.501961"/><text fill="#000000" fill-opacity="1" font-family="Arial,Arial_MSFontService,sans-serif" font-style="normal" font-variant="normal" font-weight="700" font-stretch="normal" font-size="73" text-anchor="start" direction="ltr" writing-mode="lr-tb" unicode-bidi="normal" text-decoration="none" transform="matrix(1 0 0 1 -84.4746 1840)">Real BAM  </text><path d="M0-6.875 441.19-6.875 441.17 128.264 427.42 128.262 427.439-0.00101073 434.314 6.875 0 6.875ZM454.939 121.445 434.201 162.638 413.689 121.332Z" fill="#000000" fill-rule="nonzero" fill-opacity="1" transform="matrix(1.83697e-16 1 1 -1.83697e-16 607 966)"/><path d="M600.125 1119.68 600.125 404.383 720.096 404.688 720.061 418.438 606.983 418.151 613.875 411.276 613.875 1119.68ZM714.071 390.669 754.423 413 712.347 431.883Z" fill="#000000" fill-rule="nonzero" fill-opacity="1"/><path d="M-277.5 1273.67C-277.5 1254.8-262.203 1239.5-243.333 1239.5L423.333 1239.5C442.203 1239.5 457.5 1254.8 457.5 1273.67L457.5 1410.33C457.5 1429.2 442.203 1444.5 423.333 1444.5L-243.333 1444.5C-262.203 1444.5-277.5 1429.2-277.5 1410.33Z" stroke="#44546A" stroke-width="12.6042" stroke-linecap="butt" stroke-linejoin="round" stroke-miterlimit="10" stroke-opacity="1" fill="#F9766D" fill-rule="evenodd" fill-opacity="0.501961"/><text fill="#000000" fill-opacity="1" font-family="Arial,Arial_MSFontService,sans-serif" font-style="normal" font-variant="normal" font-weight="700" font-stretch="normal" font-size="73" text-anchor="start" direction="ltr" writing-mode="lr-tb" unicode-bidi="normal" text-decoration="none" transform="matrix(1 0 0 1 -87.326 1324)">Reference</text><text fill="#000000" fill-opacity="1" font-family="Arial,Arial_MSFontService,sans-serif" font-style="normal" font-variant="normal" font-weight="700" font-stretch="normal" font-size="73" text-anchor="start" direction="ltr" writing-mode="lr-tb" unicode-bidi="normal" text-decoration="none" transform="matrix(1 0 0 1 -56.9614 1412)">Genome</text><g clip-path="url(#clip1)"><g clip-path="url(#clip2)"><g clip-path="url(#clip3)"><path d="M148.25 1592.69 98.3124 1592.69 98.3124 1542.75 80.6874 1542.75 80.6874 1592.69 30.7499 1592.69 30.7499 1610.31 80.6874 1610.31 80.6874 1660.25 98.3124 1660.25 98.3124 1610.31 148.25 1610.31Z" fill="#000000" fill-rule="nonzero" fill-opacity="1"/></g></g></g><text fill="#000000" fill-opacity="1" font-family="Arial,Arial_MSFontService,sans-serif" font-style="normal" font-variant="normal" font-weight="700" font-stretch="normal" font-size="73" text-anchor="start" direction="ltr" writing-mode="lr-tb" unicode-bidi="normal" text-decoration="none" transform="matrix(1 0 0 1 3073.09 27)">scReadSim</text><text fill="#000000" fill-opacity="1" font-family="Arial,Arial_MSFontService,sans-serif" font-style="normal" font-variant="normal" font-weight="700" font-stretch="normal" font-size="73" text-anchor="start" direction="ltr" writing-mode="lr-tb" unicode-bidi="normal" text-decoration="none" transform="matrix(1 0 0 1 3046.17 115)">Count Matrix</text><text fill="#000000" fill-opacity="1" font-family="Arial,Arial_MSFontService,sans-serif" font-style="normal" font-variant="normal" font-weight="700" font-stretch="normal" font-size="73" text-anchor="start" direction="ltr" writing-mode="lr-tb" unicode-bidi="normal" text-decoration="none" transform="matrix(1 0 0 1 3228.75 772)">Cells</text><path d="M3188.5 178.167C3188.5 169.514 3195.51 162.5 3204.17 162.5L3266.83 162.5C3275.49 162.5 3282.5 169.514 3282.5 178.167L3282.5 245.833C3282.5 254.486 3275.49 261.5 3266.83 261.5L3204.17 261.5C3195.51 261.5 3188.5 254.486 3188.5 245.833Z" stroke="#2F528F" stroke-width="4.58333" stroke-linecap="butt" stroke-linejoin="miter" stroke-miterlimit="8" stroke-opacity="1" fill="#26BFC5" fill-rule="evenodd" fill-opacity="0.301961"/><path d="M3313.5 178.334C3313.5 169.589 3320.59 162.5 3329.33 162.5L3392.67 162.5C3401.41 162.5 3408.5 169.589 3408.5 178.334L3408.5 245.666C3408.5 254.411 3401.41 261.5 3392.67 261.5L3329.33 261.5C3320.59 261.5 3313.5 254.411 3313.5 245.666Z" stroke="#2F528F" stroke-width="4.58333" stroke-linecap="butt" stroke-linejoin="miter" stroke-miterlimit="8" stroke-opacity="1" fill="#26BFC5" fill-rule="evenodd" fill-opacity="0.8"/><path d="M3185.5 316.167C3185.5 307.514 3192.51 300.5 3201.17 300.5L3263.83 300.5C3272.49 300.5 3279.5 307.514 3279.5 316.167L3279.5 382.833C3279.5 391.486 3272.49 398.5 3263.83 398.5L3201.17 398.5C3192.51 398.5 3185.5 391.486 3185.5 382.833Z" stroke="#2F528F" stroke-width="4.58333" stroke-linecap="butt" stroke-linejoin="miter" stroke-miterlimit="8" stroke-opacity="1" fill="#26BFC5" fill-rule="evenodd" fill-opacity="0.501961"/><path d="M3310.5 316.334C3310.5 307.589 3317.59 300.5 3326.33 300.5L3389.67 300.5C3398.41 300.5 3405.5 307.589 3405.5 316.334L3405.5 382.666C3405.5 391.411 3398.41 398.5 3389.67 398.5L3326.33 398.5C3317.59 398.5 3310.5 391.411 3310.5 382.666Z" stroke="#2F528F" stroke-width="4.58333" stroke-linecap="butt" stroke-linejoin="miter" stroke-miterlimit="8" stroke-opacity="1" fill="#26BFC5" fill-rule="evenodd" fill-opacity="0.301961"/><path d="M3434.5 316.334C3434.5 307.589 3441.59 300.5 3450.33 300.5L3513.67 300.5C3522.41 300.5 3529.5 307.589 3529.5 316.334L3529.5 382.666C3529.5 391.411 3522.41 398.5 3513.67 398.5L3450.33 398.5C3441.59 398.5 3434.5 391.411 3434.5 382.666Z" stroke="#2F528F" stroke-width="4.58333" stroke-linecap="butt" stroke-linejoin="miter" stroke-miterlimit="8" stroke-opacity="1" fill="#26BFC5" fill-rule="evenodd" fill-opacity="0.8"/><path d="M3185.5 455.167C3185.5 446.515 3192.51 439.5 3201.17 439.5L3263.83 439.5C3272.49 439.5 3279.5 446.515 3279.5 455.167L3279.5 521.833C3279.5 530.486 3272.49 537.5 3263.83 537.5L3201.17 537.5C3192.51 537.5 3185.5 530.486 3185.5 521.833Z" stroke="#2F528F" stroke-width="4.58333" stroke-linecap="butt" stroke-linejoin="miter" stroke-miterlimit="8" stroke-opacity="1" fill="#26BFC5" fill-rule="evenodd" fill-opacity="0.6"/><path d="M3310.5 455.334C3310.5 446.589 3317.59 439.5 3326.33 439.5L3389.67 439.5C3398.41 439.5 3405.5 446.589 3405.5 455.334L3405.5 521.666C3405.5 530.411 3398.41 537.5 3389.67 537.5L3326.33 537.5C3317.59 537.5 3310.5 530.411 3310.5 521.666Z" stroke="#2F528F" stroke-width="4.58333" stroke-linecap="butt" stroke-linejoin="miter" stroke-miterlimit="8" stroke-opacity="1" fill="#26BFC5" fill-rule="evenodd" fill-opacity="0.8"/><path d="M3434.5 455.334C3434.5 446.589 3441.59 439.5 3450.33 439.5L3513.67 439.5C3522.41 439.5 3529.5 446.589 3529.5 455.334L3529.5 521.666C3529.5 530.411 3522.41 537.5 3513.67 537.5L3450.33 537.5C3441.59 537.5 3434.5 530.411 3434.5 521.666Z" stroke="#2F528F" stroke-width="4.58333" stroke-linecap="butt" stroke-linejoin="miter" stroke-miterlimit="8" stroke-opacity="1" fill="#26BFC5" fill-rule="evenodd" fill-opacity="0.501961"/><path d="M3185.5 592.167C3185.5 583.514 3192.51 576.5 3201.17 576.5L3263.83 576.5C3272.49 576.5 3279.5 583.514 3279.5 592.167L3279.5 659.833C3279.5 668.486 3272.49 675.5 3263.83 675.5L3201.17 675.5C3192.51 675.5 3185.5 668.486 3185.5 659.833Z" stroke="#2F528F" stroke-width="4.58333" stroke-linecap="butt" stroke-linejoin="miter" stroke-miterlimit="8" stroke-opacity="1" fill="#26BFC5" fill-rule="evenodd" fill-opacity="0.8"/><path d="M3310.5 592.334C3310.5 583.589 3317.59 576.5 3326.33 576.5L3389.67 576.5C3398.41 576.5 3405.5 583.589 3405.5 592.334L3405.5 659.666C3405.5 668.411 3398.41 675.5 3389.67 675.5L3326.33 675.5C3317.59 675.5 3310.5 668.411 3310.5 659.666Z" stroke="#2F528F" stroke-width="4.58333" stroke-linecap="butt" stroke-linejoin="miter" stroke-miterlimit="8" stroke-opacity="1" fill="#26BFC5" fill-rule="evenodd" fill-opacity="0.301961"/><path d="M3434.5 592.334C3434.5 583.589 3441.59 576.5 3450.33 576.5L3513.67 576.5C3522.41 576.5 3529.5 583.589 3529.5 592.334L3529.5 659.666C3529.5 668.411 3522.41 675.5 3513.67 675.5L3450.33 675.5C3441.59 675.5 3434.5 668.411 3434.5 659.666Z" stroke="#2F528F" stroke-width="4.58333" stroke-linecap="butt" stroke-linejoin="miter" stroke-miterlimit="8" stroke-opacity="1" fill="#26BFC5" fill-rule="evenodd" fill-opacity="0.8"/><path d="M3062.5 178.334C3062.5 169.589 3069.59 162.5 3078.33 162.5L3141.67 162.5C3150.41 162.5 3157.5 169.589 3157.5 178.334L3157.5 245.666C3157.5 254.411 3150.41 261.5 3141.67 261.5L3078.33 261.5C3069.59 261.5 3062.5 254.411 3062.5 245.666Z" stroke="#2F528F" stroke-width="4.58333" stroke-linecap="butt" stroke-linejoin="miter" stroke-miterlimit="8" stroke-opacity="1" fill="#26BFC5" fill-rule="evenodd" fill-opacity="0.8"/><path d="M3059.5 316.334C3059.5 307.589 3066.59 300.5 3075.33 300.5L3138.67 300.5C3147.41 300.5 3154.5 307.589 3154.5 316.334L3154.5 382.666C3154.5 391.411 3147.41 398.5 3138.67 398.5L3075.33 398.5C3066.59 398.5 3059.5 391.411 3059.5 382.666Z" stroke="#2F528F" stroke-width="4.58333" stroke-linecap="butt" stroke-linejoin="miter" stroke-miterlimit="8" stroke-opacity="1" fill="#26BFC5" fill-rule="evenodd" fill-opacity="0.301961"/><path d="M3059.5 455.334C3059.5 446.589 3066.59 439.5 3075.33 439.5L3138.67 439.5C3147.41 439.5 3154.5 446.589 3154.5 455.334L3154.5 521.666C3154.5 530.411 3147.41 537.5 3138.67 537.5L3075.33 537.5C3066.59 537.5 3059.5 530.411 3059.5 521.666Z" stroke="#2F528F" stroke-width="4.58333" stroke-linecap="butt" stroke-linejoin="miter" stroke-miterlimit="8" stroke-opacity="1" fill="#26BFC5" fill-rule="evenodd" fill-opacity="0.8"/><path d="M3059.5 592.334C3059.5 583.589 3066.59 576.5 3075.33 576.5L3138.67 576.5C3147.41 576.5 3154.5 583.589 3154.5 592.334L3154.5 659.666C3154.5 668.411 3147.41 675.5 3138.67 675.5L3075.33 675.5C3066.59 675.5 3059.5 668.411 3059.5 659.666Z" stroke="#2F528F" stroke-width="4.58333" stroke-linecap="butt" stroke-linejoin="miter" stroke-miterlimit="8" stroke-opacity="1" fill="#26BFC5" fill-rule="evenodd" fill-opacity="0.501961"/><path d="M3437.5 181.334C3437.5 172.589 3444.59 165.5 3453.33 165.5L3516.67 165.5C3525.41 165.5 3532.5 172.589 3532.5 181.334L3532.5 247.666C3532.5 256.411 3525.41 263.5 3516.67 263.5L3453.33 263.5C3444.59 263.5 3437.5 256.411 3437.5 247.666Z" stroke="#2F528F" stroke-width="4.58333" stroke-linecap="butt" stroke-linejoin="miter" stroke-miterlimit="8" stroke-opacity="1" fill="#26BFC5" fill-rule="evenodd" fill-opacity="1"/><text fill="#000000" fill-opacity="1" font-family="Arial,Arial_MSFontService,sans-serif" font-style="normal" font-variant="normal" font-weight="700" font-stretch="normal" font-size="73" text-anchor="start" direction="ltr" writing-mode="lr-tb" unicode-bidi="normal" text-decoration="none" transform="matrix(-1.83697e-16 -1 1 -1.83697e-16 3006.29 636)">Output Peaks</text><text fill="#000000" fill-opacity="1" font-family="Arial,Arial_MSFontService,sans-serif" font-style="normal" font-variant="normal" font-weight="700" font-stretch="normal" font-size="73" text-anchor="start" direction="ltr" writing-mode="lr-tb" unicode-bidi="normal" text-decoration="none" transform="matrix(-1.83697e-16 -1 1 -1.83697e-16 3000.08 1681)">Output Non</text><text fill="#000000" fill-opacity="1" font-family="Arial,Arial_MSFontService,sans-serif" font-style="normal" font-variant="normal" font-weight="700" font-stretch="normal" font-size="73" text-anchor="start" direction="ltr" writing-mode="lr-tb" unicode-bidi="normal" text-decoration="none" transform="matrix(-1.83697e-16 -1 1 -1.83697e-16 3000.08 1278)">-</text><text fill="#000000" fill-opacity="1" font-family="Arial,Arial_MSFontService,sans-serif" font-style="normal" font-variant="normal" font-weight="700" font-stretch="normal" font-size="73" text-anchor="start" direction="ltr" writing-mode="lr-tb" unicode-bidi="normal" text-decoration="none" transform="matrix(-1.83697e-16 -1 1 -1.83697e-16 3000.08 1254)">Peaks</text><text fill="#000000" fill-opacity="1" font-family="Arial,Arial_MSFontService,sans-serif" font-style="normal" font-variant="normal" font-weight="700" font-stretch="normal" font-size="73" text-anchor="start" direction="ltr" writing-mode="lr-tb" unicode-bidi="normal" text-decoration="none" transform="matrix(1 0 0 1 3226.03 1761)">Cells</text><path d="M3178.5 1137C3178.5 1127.89 3185.89 1120.5 3195 1120.5L3261 1120.5C3270.11 1120.5 3277.5 1127.89 3277.5 1137L3277.5 1206C3277.5 1215.11 3270.11 1222.5 3261 1222.5L3195 1222.5C3185.89 1222.5 3178.5 1215.11 3178.5 1206Z" stroke="#2F528F" stroke-width="4.58333" stroke-linecap="butt" stroke-linejoin="miter" stroke-miterlimit="8" stroke-opacity="1" fill="#26BFC5" fill-rule="evenodd" fill-opacity="0.301961"/><path d="M3308.5 1137C3308.5 1127.89 3315.89 1120.5 3325 1120.5L3391 1120.5C3400.11 1120.5 3407.5 1127.89 3407.5 1137L3407.5 1206C3407.5 1215.11 3400.11 1222.5 3391 1222.5L3325 1222.5C3315.89 1222.5 3308.5 1215.11 3308.5 1206Z" stroke="#2F528F" stroke-width="4.58333" stroke-linecap="butt" stroke-linejoin="miter" stroke-miterlimit="8" stroke-opacity="1" fill="#26BFC5" fill-rule="evenodd" fill-opacity="0.301961"/><path d="M3175.5 1279C3175.5 1269.89 3182.89 1262.5 3192 1262.5L3258 1262.5C3267.11 1262.5 3274.5 1269.89 3274.5 1279L3274.5 1348C3274.5 1357.11 3267.11 1364.5 3258 1364.5L3192 1364.5C3182.89 1364.5 3175.5 1357.11 3175.5 1348Z" stroke="#2F528F" stroke-width="4.58333" stroke-linecap="butt" stroke-linejoin="miter" stroke-miterlimit="8" stroke-opacity="1" fill="#26BFC5" fill-rule="evenodd" fill-opacity="0.8"/><path d="M3305.5 1279C3305.5 1269.89 3312.89 1262.5 3322 1262.5L3388 1262.5C3397.11 1262.5 3404.5 1269.89 3404.5 1279L3404.5 1348C3404.5 1357.11 3397.11 1364.5 3388 1364.5L3322 1364.5C3312.89 1364.5 3305.5 1357.11 3305.5 1348Z" stroke="#2F528F" stroke-width="4.58333" stroke-linecap="butt" stroke-linejoin="miter" stroke-miterlimit="8" stroke-opacity="1" fill="#26BFC5" fill-rule="evenodd" fill-opacity="0.301961"/><path d="M3434.5 1279C3434.5 1269.89 3441.89 1262.5 3451 1262.5L3517 1262.5C3526.11 1262.5 3533.5 1269.89 3533.5 1279L3533.5 1348C3533.5 1357.11 3526.11 1364.5 3517 1364.5L3451 1364.5C3441.89 1364.5 3434.5 1357.11 3434.5 1348Z" stroke="#2F528F" stroke-width="4.58333" stroke-linecap="butt" stroke-linejoin="miter" stroke-miterlimit="8" stroke-opacity="1" fill="#26BFC5" fill-rule="evenodd" fill-opacity="1"/><path d="M3175.5 1424C3175.5 1414.89 3182.89 1407.5 3192 1407.5L3258 1407.5C3267.11 1407.5 3274.5 1414.89 3274.5 1424L3274.5 1493C3274.5 1502.11 3267.11 1509.5 3258 1509.5L3192 1509.5C3182.89 1509.5 3175.5 1502.11 3175.5 1493Z" stroke="#2F528F" stroke-width="4.58333" stroke-linecap="butt" stroke-linejoin="miter" stroke-miterlimit="8" stroke-opacity="1" fill="#26BFC5" fill-rule="evenodd" fill-opacity="0.6"/><path d="M3305.5 1424C3305.5 1414.89 3312.89 1407.5 3322 1407.5L3388 1407.5C3397.11 1407.5 3404.5 1414.89 3404.5 1424L3404.5 1493C3404.5 1502.11 3397.11 1509.5 3388 1509.5L3322 1509.5C3312.89 1509.5 3305.5 1502.11 3305.5 1493Z" stroke="#2F528F" stroke-width="4.58333" stroke-linecap="butt" stroke-linejoin="miter" stroke-miterlimit="8" stroke-opacity="1" fill="#26BFC5" fill-rule="evenodd" fill-opacity="1"/><path d="M3434.5 1424C3434.5 1414.89 3441.89 1407.5 3451 1407.5L3517 1407.5C3526.11 1407.5 3533.5 1414.89 3533.5 1424L3533.5 1493C3533.5 1502.11 3526.11 1509.5 3517 1509.5L3451 1509.5C3441.89 1509.5 3434.5 1502.11 3434.5 1493Z" stroke="#2F528F" stroke-width="4.58333" stroke-linecap="butt" stroke-linejoin="miter" stroke-miterlimit="8" stroke-opacity="1" fill="#26BFC5" fill-rule="evenodd" fill-opacity="0.301961"/><path d="M3175.5 1566C3175.5 1556.89 3182.89 1549.5 3192 1549.5L3258 1549.5C3267.11 1549.5 3274.5 1556.89 3274.5 1566L3274.5 1636C3274.5 1645.11 3267.11 1652.5 3258 1652.5L3192 1652.5C3182.89 1652.5 3175.5 1645.11 3175.5 1636Z" stroke="#2F528F" stroke-width="4.58333" stroke-linecap="butt" stroke-linejoin="miter" stroke-miterlimit="8" stroke-opacity="1" fill="#26BFC5" fill-rule="evenodd" fill-opacity="0.6"/><path d="M3305.5 1566C3305.5 1556.89 3312.89 1549.5 3322 1549.5L3388 1549.5C3397.11 1549.5 3404.5 1556.89 3404.5 1566L3404.5 1636C3404.5 1645.11 3397.11 1652.5 3388 1652.5L3322 1652.5C3312.89 1652.5 3305.5 1645.11 3305.5 1636Z" stroke="#2F528F" stroke-width="4.58333" stroke-linecap="butt" stroke-linejoin="miter" stroke-miterlimit="8" stroke-opacity="1" fill="#26BFC5" fill-rule="evenodd" fill-opacity="0.6"/><path d="M3434.5 1566C3434.5 1556.89 3441.89 1549.5 3451 1549.5L3517 1549.5C3526.11 1549.5 3533.5 1556.89 3533.5 1566L3533.5 1636C3533.5 1645.11 3526.11 1652.5 3517 1652.5L3451 1652.5C3441.89 1652.5 3434.5 1645.11 3434.5 1636Z" stroke="#2F528F" stroke-width="4.58333" stroke-linecap="butt" stroke-linejoin="miter" stroke-miterlimit="8" stroke-opacity="1" fill="#26BFC5" fill-rule="evenodd" fill-opacity="0.301961"/><path d="M3048.5 1137C3048.5 1127.89 3055.89 1120.5 3065 1120.5L3131 1120.5C3140.11 1120.5 3147.5 1127.89 3147.5 1137L3147.5 1206C3147.5 1215.11 3140.11 1222.5 3131 1222.5L3065 1222.5C3055.89 1222.5 3048.5 1215.11 3048.5 1206Z" stroke="#2F528F" stroke-width="4.58333" stroke-linecap="butt" stroke-linejoin="miter" stroke-miterlimit="8" stroke-opacity="1" fill="#26BFC5" fill-rule="evenodd" fill-opacity="0.301961"/><path d="M3045.5 1279C3045.5 1269.89 3052.89 1262.5 3062 1262.5L3128 1262.5C3137.11 1262.5 3144.5 1269.89 3144.5 1279L3144.5 1348C3144.5 1357.11 3137.11 1364.5 3128 1364.5L3062 1364.5C3052.89 1364.5 3045.5 1357.11 3045.5 1348Z" stroke="#2F528F" stroke-width="4.58333" stroke-linecap="butt" stroke-linejoin="miter" stroke-miterlimit="8" stroke-opacity="1" fill="#26BFC5" fill-rule="evenodd" fill-opacity="0.301961"/><path d="M3045.5 1424C3045.5 1414.89 3052.89 1407.5 3062 1407.5L3128 1407.5C3137.11 1407.5 3144.5 1414.89 3144.5 1424L3144.5 1493C3144.5 1502.11 3137.11 1509.5 3128 1509.5L3062 1509.5C3052.89 1509.5 3045.5 1502.11 3045.5 1493Z" stroke="#2F528F" stroke-width="4.58333" stroke-linecap="butt" stroke-linejoin="miter" stroke-miterlimit="8" stroke-opacity="1" fill="#26BFC5" fill-rule="evenodd" fill-opacity="0.301961"/><path d="M3045.5 1566C3045.5 1556.89 3052.89 1549.5 3062 1549.5L3128 1549.5C3137.11 1549.5 3144.5 1556.89 3144.5 1566L3144.5 1636C3144.5 1645.11 3137.11 1652.5 3128 1652.5L3062 1652.5C3052.89 1652.5 3045.5 1645.11 3045.5 1636Z" stroke="#2F528F" stroke-width="4.58333" stroke-linecap="butt" stroke-linejoin="miter" stroke-miterlimit="8" stroke-opacity="1" fill="#26BFC5" fill-rule="evenodd" fill-opacity="0.301961"/><path d="M3437.5 1139C3437.5 1129.89 3444.89 1122.5 3454 1122.5L3520 1122.5C3529.11 1122.5 3536.5 1129.89 3536.5 1139L3536.5 1209C3536.5 1218.11 3529.11 1225.5 3520 1225.5L3454 1225.5C3444.89 1225.5 3437.5 1218.11 3437.5 1209Z" stroke="#2F528F" stroke-width="4.58333" stroke-linecap="butt" stroke-linejoin="miter" stroke-miterlimit="8" stroke-opacity="1" fill="#26BFC5" fill-rule="evenodd" fill-opacity="0.301961"/><path d="M0-6.875 291.898-6.875 291.898 226.455 278.148 226.455 278.148 0 285.023 6.875 0 6.875ZM305.648 219.58 285.023 260.83 264.398 219.58Z" fill="#000000" fill-rule="nonzero" fill-opacity="1" transform="matrix(1.83697e-16 1 1 -1.83697e-16 87.0001 1916)"/><text fill="#000000" fill-opacity="1" font-family="Arial,Arial_MSFontService,sans-serif" font-style="normal" font-variant="normal" font-weight="700" font-stretch="normal" font-size="73" text-anchor="start" direction="ltr" writing-mode="lr-tb" unicode-bidi="normal" text-decoration="none" transform="matrix(1 0 0 1 516.512 2183)">Pseudo</text><text fill="#000000" fill-opacity="1" font-family="Arial,Arial_MSFontService,sans-serif" font-style="normal" font-variant="normal" font-weight="700" font-stretch="normal" font-size="73" text-anchor="start" direction="ltr" writing-mode="lr-tb" unicode-bidi="normal" text-decoration="none" transform="matrix(1 0 0 1 780.627 2183)">-</text><text fill="#000000" fill-opacity="1" font-family="Arial,Arial_MSFontService,sans-serif" font-style="normal" font-variant="normal" font-weight="700" font-stretch="normal" font-size="73" text-anchor="start" direction="ltr" writing-mode="lr-tb" unicode-bidi="normal" text-decoration="none" transform="matrix(1 0 0 1 805.262 2183)">bulk</text><text fill="#000000" fill-opacity="1" font-family="Arial,Arial_MSFontService,sans-serif" font-style="normal" font-variant="normal" font-weight="700" font-stretch="normal" font-size="73" text-anchor="start" direction="ltr" writing-mode="lr-tb" unicode-bidi="normal" text-decoration="none" transform="matrix(1 0 0 1 538.856 2271)">Real Reads</text><rect x="22" y="2581" width="216" height="26.0002" fill="#F9766D" fill-opacity="1"/><text fill="#000000" fill-opacity="1" font-family="Arial,Arial_MSFontService,sans-serif" font-style="normal" font-variant="normal" font-weight="700" font-stretch="normal" font-size="73" text-anchor="start" direction="ltr" writing-mode="lr-tb" unicode-bidi="normal" text-decoration="none" transform="matrix(1 0 0 1 285.728 2619)">Real Read</text><rect x="22" y="2659" width="216" height="26.0002" fill="#26BFC5" fill-opacity="1"/><text fill="#000000" fill-opacity="1" font-family="Arial,Arial_MSFontService,sans-serif" font-style="normal" font-variant="normal" font-weight="700" font-stretch="normal" font-size="73" text-anchor="start" direction="ltr" writing-mode="lr-tb" unicode-bidi="normal" text-decoration="none" transform="matrix(1 0 0 1 285.728 2696)">Synthetic Read</text><g clip-path="url(#clip4)"><g clip-path="url(#clip5)"><g clip-path="url(#clip6)"><path d="M148.25 1118.69 98.3124 1118.69 98.3124 1068.75 80.6874 1068.75 80.6874 1118.69 30.7499 1118.69 30.7499 1136.31 80.6874 1136.31 80.6874 1186.25 98.3124 1186.25 98.3124 1136.31 148.25 1136.31Z" fill="#000000" fill-rule="nonzero" fill-opacity="1"/></g></g></g><path d="M450 178C491.697 178 525.5 178.001 525.5 178.002L525.5 1006.17C525.5 1006.17 559.302 1006.17 601 1006.17 559.302 1006.17 525.5 1006.17 525.5 1006.17L525.5 1826C525.5 1826 491.697 1826 450 1826" stroke="#000000" stroke-width="13.75" stroke-linecap="butt" stroke-linejoin="miter" stroke-miterlimit="8" stroke-opacity="1" fill="none" fill-rule="evenodd"/><path d="M-285.5 60.1678C-285.5 21.6912-254.309-9.50013-215.832-9.50013L389.832-9.50013C428.309-9.50013 459.5 21.6912 459.5 60.1678L459.5 338.832C459.5 377.308 428.309 408.5 389.832 408.5L-215.832 408.5C-254.309 408.5-285.5 377.308-285.5 338.832Z" stroke="#44546A" stroke-width="12.6042" stroke-linecap="butt" stroke-linejoin="round" stroke-miterlimit="10" stroke-opacity="1" fill="#F9766D" fill-rule="evenodd" fill-opacity="0.501961"/><text fill="#000000" fill-opacity="1" font-family="Arial,Arial_MSFontService,sans-serif" font-style="normal" font-variant="normal" font-weight="700" font-stretch="normal" font-size="73" text-anchor="start" direction="ltr" writing-mode="lr-tb" unicode-bidi="normal" text-decoration="none" transform="matrix(1 0 0 1 -119.078 138)">Input Peaks</text><text fill="#000000" fill-opacity="1" font-family="Arial,Arial_MSFontService,sans-serif" font-style="normal" font-variant="normal" font-weight="700" font-stretch="normal" font-size="73" text-anchor="start" direction="ltr" writing-mode="lr-tb" unicode-bidi="normal" text-decoration="none" transform="matrix(1 0 0 1 21.585 226)">and</text><text fill="#000000" fill-opacity="1" font-family="Arial,Arial_MSFontService,sans-serif" font-style="normal" font-variant="normal" font-weight="700" font-stretch="normal" font-size="73" text-anchor="start" direction="ltr" writing-mode="lr-tb" unicode-bidi="normal" text-decoration="none" transform="matrix(1 0 0 1 -202.425 314)">Input Non</text><text fill="#000000" fill-opacity="1" font-family="Arial,Arial_MSFontService,sans-serif" font-style="normal" font-variant="normal" font-weight="700" font-stretch="normal" font-size="73" text-anchor="start" direction="ltr" writing-mode="lr-tb" unicode-bidi="normal" text-decoration="none" transform="matrix(1 0 0 1 139.606 314)">-</text><text fill="#000000" fill-opacity="1" font-family="Arial,Arial_MSFontService,sans-serif" font-style="normal" font-variant="normal" font-weight="700" font-stretch="normal" font-size="73" text-anchor="start" direction="ltr" writing-mode="lr-tb" unicode-bidi="normal" text-decoration="none" transform="matrix(1 0 0 1 164.241 314)">Peaks</text><path d="M2498 404.125 2840.84 404.125 2840.84 417.875 2498 417.875ZM2833.96 390.375 2875.21 411 2833.96 431.625Z" fill="#000000" fill-rule="nonzero" fill-opacity="1"/><text fill="#2E75B6" fill-opacity="1" font-family="Arial,Arial_MSFontService,sans-serif" font-style="normal" font-variant="normal" font-weight="700" font-stretch="normal" font-size="73" text-anchor="start" direction="ltr" writing-mode="lr-tb" unicode-bidi="normal" text-decoration="none" transform="matrix(1 0 0 1 2502.7 361)">scDesign2</text><path d="M-279.5 730.001C-279.5 699.901-255.099 675.5-224.999 675.5L411.999 675.5C442.099 675.5 466.5 699.901 466.5 730.001L466.5 947.999C466.5 978.099 442.099 1002.5 411.999 1002.5L-224.999 1002.5C-255.099 1002.5-279.5 978.099-279.5 947.999Z" stroke="#44546A" stroke-width="12.6042" stroke-linecap="butt" stroke-linejoin="round" stroke-miterlimit="10" stroke-opacity="1" fill="#F9766D" fill-rule="evenodd" fill-opacity="0.501961"/><text fill="#000000" fill-opacity="1" font-family="Arial,Arial_MSFontService,sans-serif" font-style="normal" font-variant="normal" font-weight="700" font-stretch="normal" font-size="73" text-anchor="start" direction="ltr" writing-mode="lr-tb" unicode-bidi="normal" text-decoration="none" transform="matrix(1 0 0 1 -143.033 866)">Output Peaks</text><g clip-path="url(#clip7)"><g clip-path="url(#clip8)"><g clip-path="url(#clip9)"><path d="M129.25 61.6875 79.3125 61.6875 79.3125 11.75 61.6875 11.75 61.6875 61.6875 11.75 61.6875 11.75 79.3125 61.6875 79.3125 61.6875 129.25 79.3125 129.25 79.3125 79.3125 129.25 79.3125Z" fill="#000000" fill-rule="nonzero" fill-opacity="1" transform="matrix(1 0 0 1 17.9999 476)"/></g></g></g><text fill="#000000" fill-opacity="1" font-family="Arial,Arial_MSFontService,sans-serif" font-style="normal" font-variant="normal" font-weight="700" font-stretch="normal" font-size="73" text-anchor="start" direction="ltr" writing-mode="lr-tb" unicode-bidi="normal" text-decoration="none" transform="matrix(1 0 0 1 1143.79 776)">Cells</text><text fill="#000000" fill-opacity="1" font-family="Arial,Arial_MSFontService,sans-serif" font-style="normal" font-variant="normal" font-weight="700" font-stretch="normal" font-size="73" text-anchor="start" direction="ltr" writing-mode="lr-tb" unicode-bidi="normal" text-decoration="none" transform="matrix(1 0 0 1 1127.52 23)">Real </text><text fill="#000000" fill-opacity="1" font-family="Arial,Arial_MSFontService,sans-serif" font-style="normal" font-variant="normal" font-weight="700" font-stretch="normal" font-size="73" text-anchor="start" direction="ltr" writing-mode="lr-tb" unicode-bidi="normal" text-decoration="none" transform="matrix(1 0 0 1 980.579 111)">Count Matrix</text><text fill="#000000" fill-opacity="1" font-family="Arial,Arial_MSFontService,sans-serif" font-style="normal" font-variant="normal" font-weight="700" font-stretch="normal" font-size="73" text-anchor="start" direction="ltr" writing-mode="lr-tb" unicode-bidi="normal" text-decoration="none" transform="matrix(-1.83697e-16 -1 1 -1.83697e-16 931.987 594)">Input Peaks</text><path d="M1117.5 190.834C1117.5 182.365 1124.37 175.5 1132.83 175.5L1194.17 175.5C1202.64 175.5 1209.5 182.365 1209.5 190.834L1209.5 256.166C1209.5 264.635 1202.64 271.5 1194.17 271.5L1132.83 271.5C1124.37 271.5 1117.5 264.635 1117.5 256.166Z" stroke="#2F528F" stroke-width="4.58333" stroke-linecap="butt" stroke-linejoin="miter" stroke-miterlimit="8" stroke-opacity="1" fill="#F9766D" fill-rule="evenodd" fill-opacity="1"/><path d="M1239.5 190.834C1239.5 182.365 1246.37 175.5 1254.83 175.5L1316.17 175.5C1324.64 175.5 1331.5 182.365 1331.5 190.834L1331.5 256.166C1331.5 264.635 1324.64 271.5 1316.17 271.5L1254.83 271.5C1246.37 271.5 1239.5 264.635 1239.5 256.166Z" stroke="#2F528F" stroke-width="4.58333" stroke-linecap="butt" stroke-linejoin="miter" stroke-miterlimit="8" stroke-opacity="1" fill="#F9766D" fill-rule="evenodd" fill-opacity="0.301961"/><path d="M1114.5 323.834C1114.5 315.365 1121.36 308.5 1129.83 308.5L1191.17 308.5C1199.64 308.5 1206.5 315.365 1206.5 323.834L1206.5 389.166C1206.5 397.635 1199.64 404.5 1191.17 404.5L1129.83 404.5C1121.36 404.5 1114.5 397.635 1114.5 389.166Z" stroke="#2F528F" stroke-width="4.58333" stroke-linecap="butt" stroke-linejoin="miter" stroke-miterlimit="8" stroke-opacity="1" fill="#F9766D" fill-rule="evenodd" fill-opacity="0.501961"/><path d="M1236.5 323.834C1236.5 315.365 1243.37 308.5 1251.83 308.5L1313.17 308.5C1321.64 308.5 1328.5 315.365 1328.5 323.834L1328.5 389.166C1328.5 397.635 1321.64 404.5 1313.17 404.5L1251.83 404.5C1243.37 404.5 1236.5 397.635 1236.5 389.166Z" stroke="#2F528F" stroke-width="4.58333" stroke-linecap="butt" stroke-linejoin="miter" stroke-miterlimit="8" stroke-opacity="1" fill="#F9766D" fill-rule="evenodd" fill-opacity="0.74902"/><path d="M1356.5 323.834C1356.5 315.365 1363.36 308.5 1371.83 308.5L1433.17 308.5C1441.64 308.5 1448.5 315.365 1448.5 323.834L1448.5 389.166C1448.5 397.635 1441.64 404.5 1433.17 404.5L1371.83 404.5C1363.36 404.5 1356.5 397.635 1356.5 389.166Z" stroke="#2F528F" stroke-width="4.58333" stroke-linecap="butt" stroke-linejoin="miter" stroke-miterlimit="8" stroke-opacity="1" fill="#F9766D" fill-rule="evenodd" fill-opacity="0.301961"/><path d="M1114.5 459.834C1114.5 451.365 1121.36 444.5 1129.83 444.5L1191.17 444.5C1199.63 444.5 1206.5 451.365 1206.5 459.834L1206.5 524.166C1206.5 532.635 1199.63 539.5 1191.17 539.5L1129.83 539.5C1121.36 539.5 1114.5 532.635 1114.5 524.166Z" stroke="#2F528F" stroke-width="4.58333" stroke-linecap="butt" stroke-linejoin="miter" stroke-miterlimit="8" stroke-opacity="1" fill="#F9766D" fill-rule="evenodd" fill-opacity="0.301961"/><path d="M1236.5 463.667C1236.5 455.291 1243.29 448.5 1251.67 448.5L1312.33 448.5C1320.71 448.5 1327.5 455.291 1327.5 463.667L1327.5 528.333C1327.5 536.709 1320.71 543.5 1312.33 543.5L1251.67 543.5C1243.29 543.5 1236.5 536.709 1236.5 528.333Z" stroke="#2F528F" stroke-width="4.58333" stroke-linecap="butt" stroke-linejoin="miter" stroke-miterlimit="8" stroke-opacity="1" fill="#F9766D" fill-rule="evenodd" fill-opacity="0.301961"/><path d="M1356.5 459.834C1356.5 451.365 1363.36 444.5 1371.83 444.5L1433.17 444.5C1441.63 444.5 1448.5 451.365 1448.5 459.834L1448.5 524.166C1448.5 532.635 1441.63 539.5 1433.17 539.5L1371.83 539.5C1363.36 539.5 1356.5 532.635 1356.5 524.166Z" stroke="#2F528F" stroke-width="4.58333" stroke-linecap="butt" stroke-linejoin="miter" stroke-miterlimit="8" stroke-opacity="1" fill="#F9766D" fill-rule="evenodd" fill-opacity="0.74902"/><path d="M1114.5 592.834C1114.5 584.365 1121.36 577.5 1129.83 577.5L1191.17 577.5C1199.63 577.5 1206.5 584.365 1206.5 592.834L1206.5 657.166C1206.5 665.635 1199.63 672.5 1191.17 672.5L1129.83 672.5C1121.36 672.5 1114.5 665.635 1114.5 657.166Z" stroke="#2F528F" stroke-width="4.58333" stroke-linecap="butt" stroke-linejoin="miter" stroke-miterlimit="8" stroke-opacity="1" fill="#F9766D" fill-rule="evenodd" fill-opacity="1"/><path d="M1236.5 592.834C1236.5 584.365 1243.37 577.5 1251.83 577.5L1313.17 577.5C1321.63 577.5 1328.5 584.365 1328.5 592.834L1328.5 657.166C1328.5 665.635 1321.63 672.5 1313.17 672.5L1251.83 672.5C1243.37 672.5 1236.5 665.635 1236.5 657.166Z" stroke="#2F528F" stroke-width="4.58333" stroke-linecap="butt" stroke-linejoin="miter" stroke-miterlimit="8" stroke-opacity="1" fill="#F9766D" fill-rule="evenodd" fill-opacity="0.301961"/><path d="M1356.5 592.834C1356.5 584.365 1363.36 577.5 1371.83 577.5L1433.17 577.5C1441.63 577.5 1448.5 584.365 1448.5 592.834L1448.5 657.166C1448.5 665.635 1441.63 672.5 1433.17 672.5L1371.83 672.5C1363.36 672.5 1356.5 665.635 1356.5 657.166Z" stroke="#2F528F" stroke-width="4.58333" stroke-linecap="butt" stroke-linejoin="miter" stroke-miterlimit="8" stroke-opacity="1" fill="#F9766D" fill-rule="evenodd" fill-opacity="0.501961"/><path d="M996.5 190.834C996.5 182.365 1003.37 175.5 1011.83 175.5L1073.17 175.5C1081.64 175.5 1088.5 182.365 1088.5 190.834L1088.5 256.166C1088.5 264.635 1081.64 271.5 1073.17 271.5L1011.83 271.5C1003.37 271.5 996.5 264.635 996.5 256.166Z" stroke="#2F528F" stroke-width="4.58333" stroke-linecap="butt" stroke-linejoin="miter" stroke-miterlimit="8" stroke-opacity="1" fill="#F9766D" fill-rule="evenodd" fill-opacity="0.501961"/><path d="M993.5 323.834C993.5 315.365 1000.37 308.5 1008.83 308.5L1070.17 308.5C1078.64 308.5 1085.5 315.365 1085.5 323.834L1085.5 389.166C1085.5 397.635 1078.64 404.5 1070.17 404.5L1008.83 404.5C1000.37 404.5 993.5 397.635 993.5 389.166Z" stroke="#2F528F" stroke-width="4.58333" stroke-linecap="butt" stroke-linejoin="miter" stroke-miterlimit="8" stroke-opacity="1" fill="#F9766D" fill-rule="evenodd" fill-opacity="0.301961"/><path d="M993.5 459.834C993.5 451.365 1000.37 444.5 1008.83 444.5L1070.17 444.5C1078.63 444.5 1085.5 451.365 1085.5 459.834L1085.5 524.166C1085.5 532.635 1078.63 539.5 1070.17 539.5L1008.83 539.5C1000.37 539.5 993.5 532.635 993.5 524.166Z" stroke="#2F528F" stroke-width="4.58333" stroke-linecap="butt" stroke-linejoin="miter" stroke-miterlimit="8" stroke-opacity="1" fill="#F9766D" fill-rule="evenodd" fill-opacity="0.301961"/><path d="M993.5 592.834C993.5 584.365 1000.37 577.5 1008.83 577.5L1070.17 577.5C1078.63 577.5 1085.5 584.365 1085.5 592.834L1085.5 657.166C1085.5 665.635 1078.63 672.5 1070.17 672.5L1008.83 672.5C1000.37 672.5 993.5 665.635 993.5 657.166Z" stroke="#2F528F" stroke-width="4.58333" stroke-linecap="butt" stroke-linejoin="miter" stroke-miterlimit="8" stroke-opacity="1" fill="#F9766D" fill-rule="evenodd" fill-opacity="0.74902"/><path d="M1359.5 193.834C1359.5 185.365 1366.37 178.5 1374.83 178.5L1436.17 178.5C1444.64 178.5 1451.5 185.365 1451.5 193.834L1451.5 258.167C1451.5 266.635 1444.64 273.5 1436.17 273.5L1374.83 273.5C1366.37 273.5 1359.5 266.635 1359.5 258.167Z" stroke="#2F528F" stroke-width="4.58333" stroke-linecap="butt" stroke-linejoin="miter" stroke-miterlimit="8" stroke-opacity="1" fill="#F9766D" fill-rule="evenodd" fill-opacity="1"/><text fill="#000000" fill-opacity="1" font-family="Arial,Arial_MSFontService,sans-serif" font-style="normal" font-variant="normal" font-weight="700" font-stretch="normal" font-size="73" text-anchor="start" direction="ltr" writing-mode="lr-tb" unicode-bidi="normal" text-decoration="none" transform="matrix(-1.83697e-16 -1 1 -1.83697e-16 914.362 1652)">Input Non</text><text fill="#000000" fill-opacity="1" font-family="Arial,Arial_MSFontService,sans-serif" font-style="normal" font-variant="normal" font-weight="700" font-stretch="normal" font-size="73" text-anchor="start" direction="ltr" writing-mode="lr-tb" unicode-bidi="normal" text-decoration="none" transform="matrix(-1.83697e-16 -1 1 -1.83697e-16 914.362 1310)">-</text><text fill="#000000" fill-opacity="1" font-family="Arial,Arial_MSFontService,sans-serif" font-style="normal" font-variant="normal" font-weight="700" font-stretch="normal" font-size="73" text-anchor="start" direction="ltr" writing-mode="lr-tb" unicode-bidi="normal" text-decoration="none" transform="matrix(-1.83697e-16 -1 1 -1.83697e-16 914.362 1285)">Peaks</text><text fill="#000000" fill-opacity="1" font-family="Arial,Arial_MSFontService,sans-serif" font-style="normal" font-variant="normal" font-weight="700" font-stretch="normal" font-size="73" text-anchor="start" direction="ltr" writing-mode="lr-tb" unicode-bidi="normal" text-decoration="none" transform="matrix(1 0 0 1 1133.48 1763)">Cells</text><path d="M1242.5 1148.5C1242.5 1139.66 1249.66 1132.5 1258.5 1132.5L1322.5 1132.5C1331.34 1132.5 1338.5 1139.66 1338.5 1148.5L1338.5 1216.5C1338.5 1225.34 1331.34 1232.5 1322.5 1232.5L1258.5 1232.5C1249.66 1232.5 1242.5 1225.34 1242.5 1216.5Z" stroke="#2F528F" stroke-width="4.58333" stroke-linecap="butt" stroke-linejoin="miter" stroke-miterlimit="8" stroke-opacity="1" fill="#F9766D" fill-rule="evenodd" fill-opacity="0.301961"/><path d="M1368.5 1148.5C1368.5 1139.66 1375.66 1132.5 1384.5 1132.5L1448.5 1132.5C1457.34 1132.5 1464.5 1139.66 1464.5 1148.5L1464.5 1216.5C1464.5 1225.34 1457.34 1232.5 1448.5 1232.5L1384.5 1232.5C1375.66 1232.5 1368.5 1225.34 1368.5 1216.5Z" stroke="#2F528F" stroke-width="4.58333" stroke-linecap="butt" stroke-linejoin="miter" stroke-miterlimit="8" stroke-opacity="1" fill="#F9766D" fill-rule="evenodd" fill-opacity="0.301961"/><path d="M1113.5 1287.5C1113.5 1278.66 1120.66 1271.5 1129.5 1271.5L1193.5 1271.5C1202.34 1271.5 1209.5 1278.66 1209.5 1287.5L1209.5 1354.5C1209.5 1363.34 1202.34 1370.5 1193.5 1370.5L1129.5 1370.5C1120.66 1370.5 1113.5 1363.34 1113.5 1354.5Z" stroke="#2F528F" stroke-width="4.58333" stroke-linecap="butt" stroke-linejoin="miter" stroke-miterlimit="8" stroke-opacity="1" fill="#F9766D" fill-rule="evenodd" fill-opacity="0.74902"/><path d="M1239.5 1287.5C1239.5 1278.66 1246.66 1271.5 1255.5 1271.5L1319.5 1271.5C1328.34 1271.5 1335.5 1278.66 1335.5 1287.5L1335.5 1354.5C1335.5 1363.34 1328.34 1370.5 1319.5 1370.5L1255.5 1370.5C1246.66 1370.5 1239.5 1363.34 1239.5 1354.5Z" stroke="#2F528F" stroke-width="4.58333" stroke-linecap="butt" stroke-linejoin="miter" stroke-miterlimit="8" stroke-opacity="1" fill="#F9766D" fill-rule="evenodd" fill-opacity="1"/><path d="M1365.5 1287.5C1365.5 1278.66 1372.66 1271.5 1381.5 1271.5L1445.5 1271.5C1454.34 1271.5 1461.5 1278.66 1461.5 1287.5L1461.5 1354.5C1461.5 1363.34 1454.34 1370.5 1445.5 1370.5L1381.5 1370.5C1372.66 1370.5 1365.5 1363.34 1365.5 1354.5Z" stroke="#2F528F" stroke-width="4.58333" stroke-linecap="butt" stroke-linejoin="miter" stroke-miterlimit="8" stroke-opacity="1" fill="#F9766D" fill-rule="evenodd" fill-opacity="0.301961"/><path d="M1113.5 1427.5C1113.5 1418.66 1120.66 1411.5 1129.5 1411.5L1193.5 1411.5C1202.34 1411.5 1209.5 1418.66 1209.5 1427.5L1209.5 1495.5C1209.5 1504.34 1202.34 1511.5 1193.5 1511.5L1129.5 1511.5C1120.66 1511.5 1113.5 1504.34 1113.5 1495.5Z" stroke="#2F528F" stroke-width="4.58333" stroke-linecap="butt" stroke-linejoin="miter" stroke-miterlimit="8" stroke-opacity="1" fill="#F9766D" fill-rule="evenodd" fill-opacity="0.301961"/><path d="M1239.5 1427.5C1239.5 1418.66 1246.66 1411.5 1255.5 1411.5L1319.5 1411.5C1328.34 1411.5 1335.5 1418.66 1335.5 1427.5L1335.5 1495.5C1335.5 1504.34 1328.34 1511.5 1319.5 1511.5L1255.5 1511.5C1246.66 1511.5 1239.5 1504.34 1239.5 1495.5Z" stroke="#2F528F" stroke-width="4.58333" stroke-linecap="butt" stroke-linejoin="miter" stroke-miterlimit="8" stroke-opacity="1" fill="#F9766D" fill-rule="evenodd" fill-opacity="0.301961"/><path d="M1113.5 1566.5C1113.5 1557.66 1120.66 1550.5 1129.5 1550.5L1193.5 1550.5C1202.34 1550.5 1209.5 1557.66 1209.5 1566.5L1209.5 1633.5C1209.5 1642.34 1202.34 1649.5 1193.5 1649.5L1129.5 1649.5C1120.66 1649.5 1113.5 1642.34 1113.5 1633.5Z" stroke="#2F528F" stroke-width="4.58333" stroke-linecap="butt" stroke-linejoin="miter" stroke-miterlimit="8" stroke-opacity="1" fill="#F9766D" fill-rule="evenodd" fill-opacity="0.301961"/><path d="M1239.5 1566.5C1239.5 1557.66 1246.66 1550.5 1255.5 1550.5L1319.5 1550.5C1328.34 1550.5 1335.5 1557.66 1335.5 1566.5L1335.5 1633.5C1335.5 1642.34 1328.34 1649.5 1319.5 1649.5L1255.5 1649.5C1246.66 1649.5 1239.5 1642.34 1239.5 1633.5Z" stroke="#2F528F" stroke-width="4.58333" stroke-linecap="butt" stroke-linejoin="miter" stroke-miterlimit="8" stroke-opacity="1" fill="#F9766D" fill-rule="evenodd" fill-opacity="0.301961"/><path d="M989.5 1148.5C989.5 1139.66 996.664 1132.5 1005.5 1132.5L1069.5 1132.5C1078.34 1132.5 1085.5 1139.66 1085.5 1148.5L1085.5 1216.5C1085.5 1225.34 1078.34 1232.5 1069.5 1232.5L1005.5 1232.5C996.664 1232.5 989.5 1225.34 989.5 1216.5Z" stroke="#2F528F" stroke-width="4.58333" stroke-linecap="butt" stroke-linejoin="miter" stroke-miterlimit="8" stroke-opacity="1" fill="#F9766D" fill-rule="evenodd" fill-opacity="0.301961"/><path d="M986.5 1287.5C986.5 1278.66 993.664 1271.5 1002.5 1271.5L1066.5 1271.5C1075.34 1271.5 1082.5 1278.66 1082.5 1287.5L1082.5 1354.5C1082.5 1363.34 1075.34 1370.5 1066.5 1370.5L1002.5 1370.5C993.664 1370.5 986.5 1363.34 986.5 1354.5Z" stroke="#2F528F" stroke-width="4.58333" stroke-linecap="butt" stroke-linejoin="miter" stroke-miterlimit="8" stroke-opacity="1" fill="#F9766D" fill-rule="evenodd" fill-opacity="0.301961"/><path d="M986.5 1427.5C986.5 1418.66 993.664 1411.5 1002.5 1411.5L1066.5 1411.5C1075.34 1411.5 1082.5 1418.66 1082.5 1427.5L1082.5 1495.5C1082.5 1504.34 1075.34 1511.5 1066.5 1511.5L1002.5 1511.5C993.664 1511.5 986.5 1504.34 986.5 1495.5Z" stroke="#2F528F" stroke-width="4.58333" stroke-linecap="butt" stroke-linejoin="miter" stroke-miterlimit="8" stroke-opacity="1" fill="#F9766D" fill-rule="evenodd" fill-opacity="0.301961"/><path d="M1113.5 1145.5C1113.5 1136.66 1120.66 1129.5 1129.5 1129.5L1193.5 1129.5C1202.34 1129.5 1209.5 1136.66 1209.5 1145.5L1209.5 1212.5C1209.5 1221.34 1202.34 1228.5 1193.5 1228.5L1129.5 1228.5C1120.66 1228.5 1113.5 1221.34 1113.5 1212.5Z" stroke="#2F528F" stroke-width="4.58333" stroke-linecap="butt" stroke-linejoin="miter" stroke-miterlimit="8" stroke-opacity="1" fill="#F9766D" fill-rule="evenodd" fill-opacity="0.301961"/><path d="M1368.5 1426.5C1368.5 1417.66 1375.66 1410.5 1384.5 1410.5L1448.5 1410.5C1457.34 1410.5 1464.5 1417.66 1464.5 1426.5L1464.5 1494.5C1464.5 1503.34 1457.34 1510.5 1448.5 1510.5L1384.5 1510.5C1375.66 1510.5 1368.5 1503.34 1368.5 1494.5Z" stroke="#2F528F" stroke-width="4.58333" stroke-linecap="butt" stroke-linejoin="miter" stroke-miterlimit="8" stroke-opacity="1" fill="#F9766D" fill-rule="evenodd" fill-opacity="0.301961"/><path d="M1368.5 1567.5C1368.5 1558.66 1375.66 1551.5 1384.5 1551.5L1448.5 1551.5C1457.34 1551.5 1464.5 1558.66 1464.5 1567.5L1464.5 1634.5C1464.5 1643.34 1457.34 1650.5 1448.5 1650.5L1384.5 1650.5C1375.66 1650.5 1368.5 1643.34 1368.5 1634.5Z" stroke="#2F528F" stroke-width="4.58333" stroke-linecap="butt" stroke-linejoin="miter" stroke-miterlimit="8" stroke-opacity="1" fill="#F9766D" fill-rule="evenodd" fill-opacity="0.301961"/><path d="M987.5 1565.5C987.5 1556.66 994.664 1549.5 1003.5 1549.5L1067.5 1549.5C1076.34 1549.5 1083.5 1556.66 1083.5 1565.5L1083.5 1632.5C1083.5 1641.34 1076.34 1648.5 1067.5 1648.5L1003.5 1648.5C994.664 1648.5 987.5 1641.34 987.5 1632.5Z" stroke="#2F528F" stroke-width="4.58333" stroke-linecap="butt" stroke-linejoin="miter" stroke-miterlimit="8" stroke-opacity="1" fill="#F9766D" fill-rule="evenodd" fill-opacity="0.74902"/><path d="M28.0786 15.6274 37.6759 23.7978 29.5055 33.3952 19.9081 25.2248ZM47.2733 31.9683 56.8706 40.1387 48.7002 49.7361 39.1028 41.5656ZM66.468 48.3092 76.0653 56.4796 67.8949 66.0769 58.2975 57.9065ZM85.6627 64.65 95.26 72.8205 87.0896 82.4178 77.4922 74.2474ZM104.857 80.9909 114.455 89.1613 106.284 98.7587 96.6869 90.5882ZM124.052 97.3317 133.649 105.502 125.479 115.1 115.882 106.929ZM143.247 113.673 152.844 121.843 144.674 131.44 135.076 123.27ZM162.441 130.013 172.039 138.184 163.868 147.781 154.271 139.611ZM181.636 146.354 183.77 148.171 175.599 157.768 173.466 155.952ZM16.5364 38.9073 0 0 41.0477 10.1153Z" fill="#000000" fill-rule="nonzero" fill-opacity="1" transform="matrix(-1 0 0 1 1687.18 216.5)"/><path d="M22.3605 23.0787 29.1854 33.6751 18.589 40.5001 11.764 29.9036ZM36.0104 44.2716 42.8353 54.8681 32.2388 61.693 25.4139 51.0965ZM49.6602 65.4646 56.4851 76.0611 45.8887 82.886 39.0637 72.2895ZM63.3101 86.6575 70.135 97.254 59.5385 104.079 52.7136 93.4825ZM76.9599 107.85 83.7848 118.447 73.1884 125.272 66.3634 114.675ZM90.6098 129.043 97.4347 139.64 86.8382 146.465 80.0133 135.868ZM104.26 150.236 111.085 160.833 100.488 167.658 93.6631 157.061ZM117.909 171.429 124.734 182.026 114.138 188.851 107.313 178.254ZM131.559 192.622 138.384 203.219 127.788 210.044 120.963 199.447ZM145.209 213.815 152.034 224.412 141.438 231.237 134.613 220.64ZM158.859 235.008 165.684 245.605 155.088 252.43 148.263 241.833ZM172.509 256.201 179.334 266.798 168.737 273.623 161.912 263.026ZM4.58007 42.0268 0 0 36.3695 21.552Z" fill="#000000" fill-rule="nonzero" fill-opacity="1" transform="matrix(-1 0 0 1 1687.18 369.5)"/><path d="M1659.11 506.842 1649.51 498.672 1657.68 489.074 1667.28 497.245ZM1639.91 490.501 1630.31 482.331 1638.48 472.734 1648.08 480.904ZM1620.72 474.16 1611.12 465.99 1619.29 456.393 1628.89 464.563ZM1601.52 457.819 1591.92 449.649 1600.09 440.052 1609.69 448.222ZM1582.33 441.479 1572.73 433.308 1580.9 423.711 1590.5 431.881ZM1563.13 425.138 1553.53 416.967 1561.71 407.37 1571.3 415.54ZM1543.94 408.797 1534.34 400.626 1542.51 391.029 1552.11 399.199ZM1524.74 392.456 1515.15 384.285 1523.32 374.688 1532.91 382.858ZM1505.55 376.115 1503.41 374.299 1511.59 364.701 1513.72 366.518ZM1670.65 483.562 1687.18 522.47 1646.14 512.354Z" fill="#000000" fill-rule="nonzero" fill-opacity="1"/><path d="M1655.67 654.803 1643.07 654.803 1643.07 642.198 1655.67 642.198ZM1630.47 654.802 1617.86 654.802 1617.86 642.198 1630.47 642.198ZM1605.26 654.802 1592.65 654.802 1592.65 642.198 1605.26 642.198ZM1580.05 654.802 1567.44 654.802 1567.44 642.198 1580.05 642.198ZM1554.84 654.802 1542.24 654.802 1542.24 642.198 1554.84 642.198ZM1529.63 654.802 1517.03 654.802 1517.03 642.198 1529.63 642.198ZM1649.37 629.594 1687.18 648.501 1649.37 667.407Z" fill="#000000" fill-rule="nonzero" fill-opacity="1"/><path d="M1662.71 1318.75 1652.12 1311.91 1658.96 1301.32 1669.55 1308.16ZM1641.53 1305.07 1630.95 1298.23 1637.79 1287.64 1648.37 1294.48ZM1620.36 1291.39 1609.77 1284.55 1616.61 1273.96 1627.2 1280.8ZM1599.19 1277.71 1588.6 1270.87 1595.44 1260.28 1606.03 1267.12ZM1578.01 1264.03 1567.43 1257.19 1574.27 1246.6 1584.85 1253.44ZM1556.84 1250.34 1546.25 1243.5 1553.09 1232.92 1563.68 1239.76ZM1535.67 1236.66 1525.08 1229.82 1531.92 1219.24 1542.51 1226.08ZM1514.49 1222.98 1503.91 1216.14 1510.75 1205.56 1521.33 1212.4ZM1671.09 1294.15 1692.59 1330.56 1650.57 1325.91Z" fill="#000000" fill-rule="nonzero" fill-opacity="1"/><path d="M19.0515 25.8778 24.3885 37.2963 12.97 42.6333 7.63304 31.2147ZM29.7254 48.7148 35.0623 60.1333 23.6438 65.4703 18.3069 54.0518ZM40.3992 71.5518 45.7361 82.9704 34.3176 88.3073 28.9807 76.8888ZM51.0731 94.3889 56.41 105.807 44.9915 111.144 39.6546 99.7258ZM61.7469 117.226 67.0838 128.644 55.6653 133.981 50.3284 122.563ZM72.4207 140.063 77.7577 151.481 66.3392 156.818 61.0022 145.4ZM83.0946 162.9 88.4315 174.318 77.013 179.655 71.6761 168.237ZM93.7684 185.737 99.1053 197.155 87.6868 202.492 82.3499 191.074ZM104.442 208.574 109.779 219.992 98.3607 225.329 93.0238 213.911ZM115.116 231.411 120.453 242.829 109.035 248.166 103.698 236.748ZM125.79 254.248 131.127 265.666 119.708 271.003 114.371 259.585ZM136.464 277.085 141.801 288.503 130.382 293.84 125.045 282.422ZM147.138 299.922 152.475 311.34 141.056 316.677 135.719 305.259ZM157.811 322.759 163.148 334.177 151.73 339.514 146.393 328.096ZM168.485 345.596 173.822 357.014 162.404 362.351 157.067 350.933ZM179.159 368.433 184.496 379.852 173.078 385.188 167.741 373.77ZM189.833 391.27 195.17 402.689 183.751 408.025 178.414 396.607ZM200.507 414.107 205.844 425.526 194.425 430.862 189.088 419.444ZM-1.11702 42.2609 0 0 33.1385 26.2502Z" fill="#000000" fill-rule="nonzero" fill-opacity="1" transform="matrix(-1 0 0 1 1694.65 1182.5)"/><path d="M1665.48 1468.95 1655.31 1461.52 1662.74 1451.34 1672.92 1458.78ZM1645.13 1454.08 1634.95 1446.65 1642.39 1436.47 1652.57 1443.91ZM1624.78 1439.21 1614.6 1431.78 1622.03 1421.6 1632.21 1429.04ZM1604.42 1424.34 1594.24 1416.91 1601.68 1406.73 1611.86 1414.16ZM1584.07 1409.47 1573.89 1402.04 1581.32 1391.86 1591.5 1399.29ZM1563.71 1394.6 1553.53 1387.16 1560.97 1376.99 1571.15 1384.42ZM1543.36 1379.73 1533.18 1372.29 1540.61 1362.12 1550.79 1369.55ZM1523 1364.86 1512.82 1357.42 1520.26 1347.25 1530.44 1354.68ZM1502.65 1349.99 1492.47 1342.55 1499.9 1332.37 1510.08 1339.81ZM1675.27 1444.88 1694.65 1482.45 1652.96 1475.41Z" fill="#000000" fill-rule="nonzero" fill-opacity="1"/><path d="M31.6529-5.54193 44.2534-5.2386 43.9501 7.36192 31.3495 7.05859ZM56.8539-4.93527 69.4544-4.63194 69.1511 7.96858 56.5506 7.66525ZM82.0549-4.3286 94.6555-4.02527 94.3521 8.57524 81.7516 8.27191ZM107.256-3.72194 119.856-3.41861 119.553 9.18191 106.953 8.87858ZM132.457-3.11528 145.058-2.81194 144.754 9.78857 132.154 9.48524ZM157.658-2.50861 170.259-2.20528 169.955 10.3952 157.355 10.0919ZM182.859-1.90195 195.46-1.59862 195.156 11.0019 182.556 10.6986ZM37.3465 19.8108 0 0 38.2565-17.9908Z" fill="#000000" fill-rule="nonzero" fill-opacity="1" transform="matrix(-1 0 0 1 1694.83 1618.5)"/><text fill="#000000" fill-opacity="1" font-family="Arial,Arial_MSFontService,sans-serif" font-style="normal" font-variant="normal" font-weight="700" font-stretch="normal" font-size="73" text-anchor="start" direction="ltr" writing-mode="lr-tb" unicode-bidi="normal" text-decoration="none" transform="matrix(1 0 0 1 2066.66 776)">Cells</text><text fill="#000000" fill-opacity="1" font-family="Arial,Arial_MSFontService,sans-serif" font-style="normal" font-variant="normal" font-weight="700" font-stretch="normal" font-size="73" text-anchor="start" direction="ltr" writing-mode="lr-tb" unicode-bidi="normal" text-decoration="none" transform="matrix(1 0 0 1 1933.57 18)">Constructed </text><text fill="#000000" fill-opacity="1" font-family="Arial,Arial_MSFontService,sans-serif" font-style="normal" font-variant="normal" font-weight="700" font-stretch="normal" font-size="73" text-anchor="start" direction="ltr" writing-mode="lr-tb" unicode-bidi="normal" text-decoration="none" transform="matrix(1 0 0 1 1924.98 106)">Count Matrix</text><path d="M2059.5 587.667C2059.5 579.29 2066.29 572.5 2074.67 572.5L2135.33 572.5C2143.71 572.5 2150.5 579.29 2150.5 587.667L2150.5 652.333C2150.5 660.71 2143.71 667.5 2135.33 667.5L2074.67 667.5C2066.29 667.5 2059.5 660.71 2059.5 652.333Z" stroke="#2F528F" stroke-width="4.58333" stroke-linecap="butt" stroke-linejoin="miter" stroke-miterlimit="8" stroke-opacity="1" fill="#F9766D" fill-rule="evenodd" fill-opacity="1"/><path d="M2180.5 587.833C2180.5 579.365 2187.36 572.5 2195.83 572.5L2257.17 572.5C2265.64 572.5 2272.5 579.365 2272.5 587.833L2272.5 652.166C2272.5 660.635 2265.64 667.5 2257.17 667.5L2195.83 667.5C2187.36 667.5 2180.5 660.635 2180.5 652.166Z" stroke="#2F528F" stroke-width="4.58333" stroke-linecap="butt" stroke-linejoin="miter" stroke-miterlimit="8" stroke-opacity="1" fill="#F9766D" fill-rule="evenodd" fill-opacity="0.301961"/><path d="M2300.5 587.833C2300.5 579.365 2307.36 572.5 2315.83 572.5L2377.17 572.5C2385.63 572.5 2392.5 579.365 2392.5 587.833L2392.5 652.166C2392.5 660.635 2385.63 667.5 2377.17 667.5L2315.83 667.5C2307.36 667.5 2300.5 660.635 2300.5 652.166Z" stroke="#2F528F" stroke-width="4.58333" stroke-linecap="butt" stroke-linejoin="miter" stroke-miterlimit="8" stroke-opacity="1" fill="#F9766D" fill-rule="evenodd" fill-opacity="0.501961"/><path d="M1937.5 587.833C1937.5 579.365 1944.36 572.5 1952.83 572.5L2014.17 572.5C2022.63 572.5 2029.5 579.365 2029.5 587.833L2029.5 652.166C2029.5 660.635 2022.63 667.5 2014.17 667.5L1952.83 667.5C1944.36 667.5 1937.5 660.635 1937.5 652.166Z" stroke="#2F528F" stroke-width="4.58333" stroke-linecap="butt" stroke-linejoin="miter" stroke-miterlimit="8" stroke-opacity="1" fill="#F9766D" fill-rule="evenodd" fill-opacity="0.74902"/><path d="M2056.5 194.834C2056.5 186.365 2063.37 179.5 2071.83 179.5L2133.17 179.5C2141.64 179.5 2148.5 186.365 2148.5 194.834L2148.5 259.167C2148.5 267.635 2141.64 274.5 2133.17 274.5L2071.83 274.5C2063.37 274.5 2056.5 267.635 2056.5 259.167Z" stroke="#2F528F" stroke-width="4.58333" stroke-linecap="butt" stroke-linejoin="miter" stroke-miterlimit="8" stroke-opacity="1" fill="#F9766D" fill-rule="evenodd" fill-opacity="0.501961"/><path d="M2177.5 194.834C2177.5 186.365 2184.37 179.5 2192.83 179.5L2254.17 179.5C2262.64 179.5 2269.5 186.365 2269.5 194.834L2269.5 259.167C2269.5 267.635 2262.64 274.5 2254.17 274.5L2192.83 274.5C2184.37 274.5 2177.5 267.635 2177.5 259.167Z" stroke="#2F528F" stroke-width="4.58333" stroke-linecap="butt" stroke-linejoin="miter" stroke-miterlimit="8" stroke-opacity="1" fill="#F9766D" fill-rule="evenodd" fill-opacity="0.74902"/><path d="M2298.5 194.834C2298.5 186.365 2305.37 179.5 2313.83 179.5L2375.17 179.5C2383.64 179.5 2390.5 186.365 2390.5 194.834L2390.5 259.167C2390.5 267.635 2383.64 274.5 2375.17 274.5L2313.83 274.5C2305.37 274.5 2298.5 267.635 2298.5 259.167Z" stroke="#2F528F" stroke-width="4.58333" stroke-linecap="butt" stroke-linejoin="miter" stroke-miterlimit="8" stroke-opacity="1" fill="#F9766D" fill-rule="evenodd" fill-opacity="0.301961"/><path d="M1935.5 194.667C1935.5 186.29 1942.29 179.5 1950.67 179.5L2011.33 179.5C2019.71 179.5 2026.5 186.29 2026.5 194.667L2026.5 259.333C2026.5 267.71 2019.71 274.5 2011.33 274.5L1950.67 274.5C1942.29 274.5 1935.5 267.71 1935.5 259.333Z" stroke="#2F528F" stroke-width="4.58333" stroke-linecap="butt" stroke-linejoin="miter" stroke-miterlimit="8" stroke-opacity="1" fill="#F9766D" fill-rule="evenodd" fill-opacity="0.301961"/><path d="M2057.5 452.834C2057.5 444.365 2064.36 437.5 2072.83 437.5L2134.17 437.5C2142.63 437.5 2149.5 444.365 2149.5 452.834L2149.5 517.166C2149.5 525.635 2142.63 532.5 2134.17 532.5L2072.83 532.5C2064.36 532.5 2057.5 525.635 2057.5 517.166Z" stroke="#2F528F" stroke-width="4.58333" stroke-linecap="butt" stroke-linejoin="miter" stroke-miterlimit="8" stroke-opacity="1" fill="#F9766D" fill-rule="evenodd" fill-opacity="0.501961"/><path d="M2178.5 452.834C2178.5 444.365 2185.36 437.5 2193.83 437.5L2255.17 437.5C2263.63 437.5 2270.5 444.365 2270.5 452.834L2270.5 517.166C2270.5 525.635 2263.63 532.5 2255.17 532.5L2193.83 532.5C2185.36 532.5 2178.5 525.635 2178.5 517.166Z" stroke="#2F528F" stroke-width="4.58333" stroke-linecap="butt" stroke-linejoin="miter" stroke-miterlimit="8" stroke-opacity="1" fill="#F9766D" fill-rule="evenodd" fill-opacity="0.74902"/><path d="M2299.5 452.834C2299.5 444.365 2306.36 437.5 2314.83 437.5L2376.17 437.5C2384.63 437.5 2391.5 444.365 2391.5 452.834L2391.5 517.166C2391.5 525.635 2384.63 532.5 2376.17 532.5L2314.83 532.5C2306.36 532.5 2299.5 525.635 2299.5 517.166Z" stroke="#2F528F" stroke-width="4.58333" stroke-linecap="butt" stroke-linejoin="miter" stroke-miterlimit="8" stroke-opacity="1" fill="#F9766D" fill-rule="evenodd" fill-opacity="0.301961"/><path d="M1935.5 452.834C1935.5 444.365 1942.37 437.5 1950.83 437.5L2012.17 437.5C2020.63 437.5 2027.5 444.365 2027.5 452.834L2027.5 517.166C2027.5 525.635 2020.63 532.5 2012.17 532.5L1950.83 532.5C1942.37 532.5 1935.5 525.635 1935.5 517.166Z" stroke="#2F528F" stroke-width="4.58333" stroke-linecap="butt" stroke-linejoin="miter" stroke-miterlimit="8" stroke-opacity="1" fill="#F9766D" fill-rule="evenodd" fill-opacity="0.301961"/><path d="M2057.5 322.667C2057.5 314.291 2064.29 307.5 2072.67 307.5L2133.33 307.5C2141.71 307.5 2148.5 314.291 2148.5 322.667L2148.5 387.333C2148.5 395.71 2141.71 402.5 2133.33 402.5L2072.67 402.5C2064.29 402.5 2057.5 395.71 2057.5 387.333Z" stroke="#2F528F" stroke-width="4.58333" stroke-linecap="butt" stroke-linejoin="miter" stroke-miterlimit="8" stroke-opacity="1" fill="#F9766D" fill-rule="evenodd" fill-opacity="1"/><path d="M2178.5 322.834C2178.5 314.365 2185.36 307.5 2193.83 307.5L2255.17 307.5C2263.63 307.5 2270.5 314.365 2270.5 322.834L2270.5 387.166C2270.5 395.635 2263.63 402.5 2255.17 402.5L2193.83 402.5C2185.36 402.5 2178.5 395.635 2178.5 387.166Z" stroke="#2F528F" stroke-width="4.58333" stroke-linecap="butt" stroke-linejoin="miter" stroke-miterlimit="8" stroke-opacity="1" fill="#F9766D" fill-rule="evenodd" fill-opacity="0.301961"/><path d="M2298.5 322.834C2298.5 314.365 2305.37 307.5 2313.83 307.5L2375.17 307.5C2383.64 307.5 2390.5 314.365 2390.5 322.834L2390.5 387.166C2390.5 395.635 2383.64 402.5 2375.17 402.5L2313.83 402.5C2305.37 402.5 2298.5 395.635 2298.5 387.166Z" stroke="#2F528F" stroke-width="4.58333" stroke-linecap="butt" stroke-linejoin="miter" stroke-miterlimit="8" stroke-opacity="1" fill="#F9766D" fill-rule="evenodd" fill-opacity="0.501961"/><path d="M1935.5 322.834C1935.5 314.365 1942.37 307.5 1950.83 307.5L2012.17 307.5C2020.63 307.5 2027.5 314.365 2027.5 322.834L2027.5 387.166C2027.5 395.635 2020.63 402.5 2012.17 402.5L1950.83 402.5C1942.37 402.5 1935.5 395.635 1935.5 387.166Z" stroke="#2F528F" stroke-width="4.58333" stroke-linecap="butt" stroke-linejoin="miter" stroke-miterlimit="8" stroke-opacity="1" fill="#F9766D" fill-rule="evenodd" fill-opacity="0.74902"/><text fill="#000000" fill-opacity="1" font-family="Arial,Arial_MSFontService,sans-serif" font-style="normal" font-variant="normal" font-weight="700" font-stretch="normal" font-size="73" text-anchor="start" direction="ltr" writing-mode="lr-tb" unicode-bidi="normal" text-decoration="none" transform="matrix(-1.83697e-16 -1 1 -1.83697e-16 1873.54 638)">Output Peaks</text><text fill="#000000" fill-opacity="1" font-family="Arial,Arial_MSFontService,sans-serif" font-style="normal" font-variant="normal" font-weight="700" font-stretch="normal" font-size="73" text-anchor="start" direction="ltr" writing-mode="lr-tb" unicode-bidi="normal" text-decoration="none" transform="matrix(1 0 0 1 2071.01 1774)">Cells</text><path d="M2053.5 1565.33C2053.5 1556.59 2060.59 1549.5 2069.33 1549.5L2132.67 1549.5C2141.41 1549.5 2148.5 1556.59 2148.5 1565.33L2148.5 1631.67C2148.5 1640.41 2141.41 1647.5 2132.67 1647.5L2069.33 1647.5C2060.59 1647.5 2053.5 1640.41 2053.5 1631.67Z" stroke="#2F528F" stroke-width="4.58333" stroke-linecap="butt" stroke-linejoin="miter" stroke-miterlimit="8" stroke-opacity="1" fill="#F9766D" fill-rule="evenodd" fill-opacity="0.301961"/><path d="M2179.5 1565.17C2179.5 1556.51 2186.51 1549.5 2195.17 1549.5L2257.83 1549.5C2266.49 1549.5 2273.5 1556.51 2273.5 1565.17L2273.5 1631.83C2273.5 1640.49 2266.49 1647.5 2257.83 1647.5L2195.17 1647.5C2186.51 1647.5 2179.5 1640.49 2179.5 1631.83Z" stroke="#2F528F" stroke-width="4.58333" stroke-linecap="butt" stroke-linejoin="miter" stroke-miterlimit="8" stroke-opacity="1" fill="#F9766D" fill-rule="evenodd" fill-opacity="0.301961"/><path d="M2306.5 1566.33C2306.5 1557.59 2313.59 1550.5 2322.33 1550.5L2385.67 1550.5C2394.41 1550.5 2401.5 1557.59 2401.5 1566.33L2401.5 1632.67C2401.5 1641.41 2394.41 1648.5 2385.67 1648.5L2322.33 1648.5C2313.59 1648.5 2306.5 1641.41 2306.5 1632.67Z" stroke="#2F528F" stroke-width="4.58333" stroke-linecap="butt" stroke-linejoin="miter" stroke-miterlimit="8" stroke-opacity="1" fill="#F9766D" fill-rule="evenodd" fill-opacity="0.301961"/><path d="M1928.5 1564.33C1928.5 1555.59 1935.59 1548.5 1944.33 1548.5L2007.67 1548.5C2016.41 1548.5 2023.5 1555.59 2023.5 1564.33L2023.5 1630.67C2023.5 1639.41 2016.41 1646.5 2007.67 1646.5L1944.33 1646.5C1935.59 1646.5 1928.5 1639.41 1928.5 1630.67Z" stroke="#2F528F" stroke-width="4.58333" stroke-linecap="butt" stroke-linejoin="miter" stroke-miterlimit="8" stroke-opacity="1" fill="#F9766D" fill-rule="evenodd" fill-opacity="0.74902"/><path d="M2178.5 1298.33C2178.5 1289.59 2185.59 1282.5 2194.33 1282.5L2257.67 1282.5C2266.41 1282.5 2273.5 1289.59 2273.5 1298.33L2273.5 1364.67C2273.5 1373.41 2266.41 1380.5 2257.67 1380.5L2194.33 1380.5C2185.59 1380.5 2178.5 1373.41 2178.5 1364.67Z" stroke="#2F528F" stroke-width="4.58333" stroke-linecap="butt" stroke-linejoin="miter" stroke-miterlimit="8" stroke-opacity="1" fill="#F9766D" fill-rule="evenodd" fill-opacity="0.301961"/><path d="M2302.5 1298.33C2302.5 1289.59 2309.59 1282.5 2318.33 1282.5L2381.67 1282.5C2390.41 1282.5 2397.5 1289.59 2397.5 1298.33L2397.5 1364.67C2397.5 1373.41 2390.41 1380.5 2381.67 1380.5L2318.33 1380.5C2309.59 1380.5 2302.5 1373.41 2302.5 1364.67Z" stroke="#2F528F" stroke-width="4.58333" stroke-linecap="butt" stroke-linejoin="miter" stroke-miterlimit="8" stroke-opacity="1" fill="#F9766D" fill-rule="evenodd" fill-opacity="0.301961"/><path d="M1927.5 1298.33C1927.5 1289.59 1934.59 1282.5 1943.33 1282.5L2006.67 1282.5C2015.41 1282.5 2022.5 1289.59 2022.5 1298.33L2022.5 1364.67C2022.5 1373.41 2015.41 1380.5 2006.67 1380.5L1943.33 1380.5C1934.59 1380.5 1927.5 1373.41 1927.5 1364.67Z" stroke="#2F528F" stroke-width="4.58333" stroke-linecap="butt" stroke-linejoin="miter" stroke-miterlimit="8" stroke-opacity="1" fill="#F9766D" fill-rule="evenodd" fill-opacity="0.301961"/><path d="M2049.5 1294.33C2049.5 1285.59 2056.59 1278.5 2065.33 1278.5L2128.67 1278.5C2137.41 1278.5 2144.5 1285.59 2144.5 1294.33L2144.5 1361.67C2144.5 1370.41 2137.41 1377.5 2128.67 1377.5L2065.33 1377.5C2056.59 1377.5 2049.5 1370.41 2049.5 1361.67Z" stroke="#2F528F" stroke-width="4.58333" stroke-linecap="butt" stroke-linejoin="miter" stroke-miterlimit="8" stroke-opacity="1" fill="#F9766D" fill-rule="evenodd" fill-opacity="0.301961"/><path d="M2051.5 1435.33C2051.5 1426.59 2058.59 1419.5 2067.33 1419.5L2130.67 1419.5C2139.41 1419.5 2146.5 1426.59 2146.5 1435.33L2146.5 1501.67C2146.5 1510.41 2139.41 1517.5 2130.67 1517.5L2067.33 1517.5C2058.59 1517.5 2051.5 1510.41 2051.5 1501.67Z" stroke="#2F528F" stroke-width="4.58333" stroke-linecap="butt" stroke-linejoin="miter" stroke-miterlimit="8" stroke-opacity="1" fill="#F9766D" fill-rule="evenodd" fill-opacity="0.74902"/><path d="M2176.5 1435.33C2176.5 1426.59 2183.59 1419.5 2192.33 1419.5L2255.67 1419.5C2264.41 1419.5 2271.5 1426.59 2271.5 1435.33L2271.5 1501.67C2271.5 1510.41 2264.41 1517.5 2255.67 1517.5L2192.33 1517.5C2183.59 1517.5 2176.5 1510.41 2176.5 1501.67Z" stroke="#2F528F" stroke-width="4.58333" stroke-linecap="butt" stroke-linejoin="miter" stroke-miterlimit="8" stroke-opacity="1" fill="#F9766D" fill-rule="evenodd" fill-opacity="1"/><path d="M2301.5 1435.33C2301.5 1426.59 2308.59 1419.5 2317.33 1419.5L2380.67 1419.5C2389.41 1419.5 2396.5 1426.59 2396.5 1435.33L2396.5 1501.67C2396.5 1510.41 2389.41 1517.5 2380.67 1517.5L2317.33 1517.5C2308.59 1517.5 2301.5 1510.41 2301.5 1501.67Z" stroke="#2F528F" stroke-width="4.58333" stroke-linecap="butt" stroke-linejoin="miter" stroke-miterlimit="8" stroke-opacity="1" fill="#F9766D" fill-rule="evenodd" fill-opacity="0.301961"/><path d="M1926.5 1435.17C1926.5 1426.51 1933.51 1419.5 1942.17 1419.5L2004.83 1419.5C2013.49 1419.5 2020.5 1426.51 2020.5 1435.17L2020.5 1501.83C2020.5 1510.49 2013.49 1517.5 2004.83 1517.5L1942.17 1517.5C1933.51 1517.5 1926.5 1510.49 1926.5 1501.83Z" stroke="#2F528F" stroke-width="4.58333" stroke-linecap="butt" stroke-linejoin="miter" stroke-miterlimit="8" stroke-opacity="1" fill="#F9766D" fill-rule="evenodd" fill-opacity="0.301961"/><path d="M2051.5 1158.33C2051.5 1149.59 2058.59 1142.5 2067.33 1142.5L2130.67 1142.5C2139.41 1142.5 2146.5 1149.59 2146.5 1158.33L2146.5 1225.67C2146.5 1234.41 2139.41 1241.5 2130.67 1241.5L2067.33 1241.5C2058.59 1241.5 2051.5 1234.41 2051.5 1225.67Z" stroke="#2F528F" stroke-width="4.58333" stroke-linecap="butt" stroke-linejoin="miter" stroke-miterlimit="8" stroke-opacity="1" fill="#F9766D" fill-rule="evenodd" fill-opacity="0.301961"/><path d="M2177.5 1158.17C2177.5 1149.51 2184.51 1142.5 2193.17 1142.5L2255.83 1142.5C2264.49 1142.5 2271.5 1149.51 2271.5 1158.17L2271.5 1225.83C2271.5 1234.49 2264.49 1241.5 2255.83 1241.5L2193.17 1241.5C2184.51 1241.5 2177.5 1234.49 2177.5 1225.83Z" stroke="#2F528F" stroke-width="4.58333" stroke-linecap="butt" stroke-linejoin="miter" stroke-miterlimit="8" stroke-opacity="1" fill="#F9766D" fill-rule="evenodd" fill-opacity="0.301961"/><path d="M2304.5 1159.33C2304.5 1150.59 2311.59 1143.5 2320.33 1143.5L2383.67 1143.5C2392.41 1143.5 2399.5 1150.59 2399.5 1159.33L2399.5 1226.67C2399.5 1235.41 2392.41 1242.5 2383.67 1242.5L2320.33 1242.5C2311.59 1242.5 2304.5 1235.41 2304.5 1226.67Z" stroke="#2F528F" stroke-width="4.58333" stroke-linecap="butt" stroke-linejoin="miter" stroke-miterlimit="8" stroke-opacity="1" fill="#F9766D" fill-rule="evenodd" fill-opacity="0.301961"/><path d="M1926.5 1157.33C1926.5 1148.59 1933.59 1141.5 1942.33 1141.5L2005.67 1141.5C2014.41 1141.5 2021.5 1148.59 2021.5 1157.33L2021.5 1224.67C2021.5 1233.41 2014.41 1240.5 2005.67 1240.5L1942.33 1240.5C1933.59 1240.5 1926.5 1233.41 1926.5 1224.67Z" stroke="#2F528F" stroke-width="4.58333" stroke-linecap="butt" stroke-linejoin="miter" stroke-miterlimit="8" stroke-opacity="1" fill="#F9766D" fill-rule="evenodd" fill-opacity="0.74902"/><text fill="#000000" fill-opacity="1" font-family="Arial,Arial_MSFontService,sans-serif" font-style="normal" font-variant="normal" font-weight="700" font-stretch="normal" font-size="73" text-anchor="start" direction="ltr" writing-mode="lr-tb" unicode-bidi="normal" text-decoration="none" transform="matrix(-1.83697e-16 -1 1 -1.83697e-16 1877.18 1687)">Output Non</text><text fill="#000000" fill-opacity="1" font-family="Arial,Arial_MSFontService,sans-serif" font-style="normal" font-variant="normal" font-weight="700" font-stretch="normal" font-size="73" text-anchor="start" direction="ltr" writing-mode="lr-tb" unicode-bidi="normal" text-decoration="none" transform="matrix(-1.83697e-16 -1 1 -1.83697e-16 1877.18 1283)">-</text><text fill="#000000" fill-opacity="1" font-family="Arial,Arial_MSFontService,sans-serif" font-style="normal" font-variant="normal" font-weight="700" font-stretch="normal" font-size="73" text-anchor="start" direction="ltr" writing-mode="lr-tb" unicode-bidi="normal" text-decoration="none" transform="matrix(-1.83697e-16 -1 1 -1.83697e-16 1877.18 1259)">Peaks</text><text fill="#000000" fill-opacity="1" font-family="Arial,Arial_MSFontService,sans-serif" font-style="normal" font-variant="normal" font-weight="700" font-stretch="normal" font-size="73" text-anchor="start" direction="ltr" writing-mode="lr-tb" unicode-bidi="normal" text-decoration="none" transform="matrix(1 0 0 1 600.52 3247)">Synthetic Cell </text><text fill="#000000" fill-opacity="1" font-family="Arial,Arial_MSFontService,sans-serif" font-style="normal" font-variant="normal" font-weight="700" font-stretch="normal" font-size="73" text-anchor="start" direction="ltr" writing-mode="lr-tb" unicode-bidi="normal" text-decoration="none" transform="matrix(1 0 0 1 1106.41 3247)">1</text><path d="M559 3283 3362.92 3283" stroke="#7F7F7F" stroke-width="8.02083" stroke-linecap="square" stroke-linejoin="miter" stroke-miterlimit="8" stroke-dasharray="24.0625 8.02083" stroke-opacity="1" fill="none" fill-rule="evenodd"/><path d="M555 3443 3345.8 3443" stroke="#7F7F7F" stroke-width="8.02083" stroke-linecap="square" stroke-linejoin="miter" stroke-miterlimit="8" stroke-dasharray="24.0625 8.02083" stroke-opacity="1" fill="none" fill-rule="evenodd"/><text fill="#000000" fill-opacity="1" font-family="Arial,Arial_MSFontService,sans-serif" font-style="normal" font-variant="normal" font-weight="700" font-stretch="normal" font-size="73" text-anchor="start" direction="ltr" writing-mode="lr-tb" unicode-bidi="normal" text-decoration="none" transform="matrix(1 0 0 1 598.808 3398)">Synthetic Cell 2</text><path d="M557 3595 3347.8 3595" stroke="#7F7F7F" stroke-width="8.02083" stroke-linecap="square" stroke-linejoin="miter" stroke-miterlimit="8" stroke-dasharray="24.0625 8.02083" stroke-opacity="1" fill="none" fill-rule="evenodd"/><rect x="1439" y="3335" width="149" height="15.9998" fill="#26BFC5" fill-opacity="1"/><rect x="2954" y="3666" width="149" height="15.9998" fill="#26BFC5" fill-opacity="1"/><rect x="2651" y="3373" width="149" height="16.0002" fill="#26BFC5" fill-opacity="1"/><rect x="2283" y="3372" width="149" height="17.0002" fill="#26BFC5" fill-opacity="1"/><rect x="2490" y="3202" width="150" height="15.9998" fill="#26BFC5" fill-opacity="1"/><rect x="2707" y="3194" width="149" height="15.9998" fill="#26BFC5" fill-opacity="1"/><rect x="2917" y="3191" width="150" height="15.9998" fill="#26BFC5" fill-opacity="1"/><rect x="1534" y="3205" width="150" height="15.9998" fill="#26BFC5" fill-opacity="1"/><rect x="3052" y="3229" width="149" height="16.0002" fill="#26BFC5" fill-opacity="1"/><rect x="2939" y="3340" width="149" height="16.0002" fill="#26BFC5" fill-opacity="1"/><text fill="#000000" fill-opacity="1" font-family="Arial,Arial_MSFontService,sans-serif" font-style="normal" font-variant="normal" font-weight="700" font-stretch="normal" font-size="73" text-anchor="start" direction="ltr" writing-mode="lr-tb" unicode-bidi="normal" text-decoration="none" transform="matrix(1 0 0 1 597.635 3542)">Synthetic Cell 3</text><rect x="1432" y="3473" width="149" height="16.0002" fill="#26BFC5" fill-opacity="1"/><rect x="2472" y="3548" width="149" height="16.0002" fill="#26BFC5" fill-opacity="1"/><rect x="2873" y="3458" width="149" height="15.9998" fill="#26BFC5" fill-opacity="1"/><rect x="2943" y="3710" width="149" height="15.9998" fill="#26BFC5" fill-opacity="1"/><rect x="2006" y="3628" width="150" height="16.0002" fill="#26BFC5" fill-opacity="1"/><text fill="#000000" fill-opacity="1" font-family="Arial,Arial_MSFontService,sans-serif" font-style="normal" font-variant="normal" font-weight="700" font-stretch="normal" font-size="73" text-anchor="start" direction="ltr" writing-mode="lr-tb" unicode-bidi="normal" text-decoration="none" transform="matrix(1 0 0 1 597.635 3695)">Synthetic Cell 4</text><rect x="2737" y="3691" width="149" height="17.0002" fill="#26BFC5" fill-opacity="1"/><path d="M-37.5 3261.84C-37.5 3188.75 21.7492 3129.5 94.8367 3129.5L3423.16 3129.5C3496.25 3129.5 3555.5 3188.75 3555.5 3261.84L3555.5 3791.16C3555.5 3864.25 3496.25 3923.5 3423.16 3923.5L94.8367 3923.5C21.7492 3923.5-37.5 3864.25-37.5 3791.16Z" stroke="#26BFC5" stroke-width="12.6042" stroke-linecap="butt" stroke-linejoin="miter" stroke-miterlimit="8" stroke-opacity="0.501961" fill="none" fill-rule="evenodd"/><text fill="#000000" fill-opacity="1" font-family="Arial,Arial_MSFontService,sans-serif" font-style="normal" font-variant="normal" font-weight="700" font-stretch="normal" font-size="73" text-anchor="start" direction="ltr" writing-mode="lr-tb" unicode-bidi="normal" text-decoration="none" transform="matrix(1 0 0 1 108.885 3456)">Synthetic</text><text fill="#000000" fill-opacity="1" font-family="Arial,Arial_MSFontService,sans-serif" font-style="normal" font-variant="normal" font-weight="700" font-stretch="normal" font-size="73" text-anchor="start" direction="ltr" writing-mode="lr-tb" unicode-bidi="normal" text-decoration="none" transform="matrix(1 0 0 1 164.16 3544)">Reads </text><text fill="#000000" fill-opacity="1" font-family="Arial,Arial_MSFontService,sans-serif" font-style="normal" font-variant="normal" font-weight="700" font-stretch="normal" font-size="73" text-anchor="start" direction="ltr" writing-mode="lr-tb" unicode-bidi="normal" text-decoration="none" transform="matrix(1 0 0 1 31.5413 3632)">(FASTQ/BAM)</text><rect x="2901" y="3550" width="149" height="16.0002" fill="#26BFC5" fill-opacity="1"/><rect x="2684" y="3458" width="149" height="15.9998" fill="#26BFC5" fill-opacity="1"/><rect x="2506" y="3328" width="149" height="17.0002" fill="#26BFC5" fill-opacity="1"/><rect x="2395" y="3628" width="149" height="16.0002" fill="#26BFC5" fill-opacity="1"/><rect x="2699" y="3546" width="149" height="15.9998" fill="#26BFC5" fill-opacity="1"/><rect x="3055" y="3503" width="149" height="15.9998" fill="#26BFC5" fill-opacity="1"/><path d="M3532 214 3625.28 214 3625.28 1399.84" stroke="#000000" stroke-width="13.75" stroke-linecap="butt" stroke-linejoin="miter" stroke-miterlimit="8" stroke-opacity="1" fill="none" fill-rule="evenodd"/><path d="M0 6.875-90.8533 6.875-83.9783 0-83.9783 1365.6-90.8533 1358.73 1604.69 1358.73 1604.69 1372.48-97.7283 1372.48-97.7283-6.875 0-6.875ZM1597.82 1344.98 1639.07 1365.6 1597.82 1386.23Z" fill="#000000" fill-rule="nonzero" fill-opacity="1" transform="matrix(-1 0 0 1 3535.07 1174)"/><path d="M1867.88 2461.95 1869.32 2660.83 1855.57 2660.93 1854.13 2462.05ZM1883.02 2653.85 1862.69 2695.25 1841.77 2654.15Z" fill="#000000" fill-rule="nonzero" fill-opacity="1"/><rect x="1375" y="2213" width="229" height="15.9998" fill="#F9766D" fill-opacity="1"/><rect x="1674" y="2213" width="137" height="17.9998" fill="#F9766D" fill-opacity="1"/><rect x="1605" y="2134" width="154" height="19" fill="#F9766D" fill-opacity="1"/><rect x="1666" y="2088" width="137" height="19" fill="#F9766D" fill-opacity="1"/><rect x="1554" y="2175" width="307" height="16.0002" fill="#F9766D" fill-opacity="1"/><rect x="1273" y="2176" width="148" height="16.0002" fill="#F9766D" fill-opacity="1"/><rect x="1840" y="2132" width="133" height="16.0002" fill="#F9766D" fill-opacity="1"/><rect x="1423" y="2091" width="140" height="16.9998" fill="#F9766D" fill-opacity="1"/><rect x="1951" y="2178" width="167" height="16.0002" fill="#F9766D" fill-opacity="1"/><rect x="1851" y="2214" width="244" height="15.9998" fill="#F9766D" fill-opacity="1"/><rect x="1854" y="2041" width="154" height="19.0004" fill="#F9766D" fill-opacity="1"/><rect x="1629" y="2040" width="137" height="18.9999" fill="#F9766D" fill-opacity="1"/><rect x="1761" y="1962" width="149" height="15.9998" fill="#F9766D" fill-opacity="1"/><rect x="1696" y="1991" width="137" height="19.9999" fill="#F9766D" fill-opacity="1"/><rect x="1589" y="1959" width="137" height="18.9999" fill="#F9766D" fill-opacity="1"/><rect x="1423" y="2041" width="149" height="16.0001" fill="#F9766D" fill-opacity="1"/><rect x="1513" y="1996" width="134" height="15.9998" fill="#F9766D" fill-opacity="1"/><rect x="1666" y="1922" width="140" height="17.0002" fill="#F9766D" fill-opacity="1"/><rect x="3096" y="2210" width="149" height="17.0002" fill="#F9766D" fill-opacity="1"/><rect x="2874" y="2212" width="149" height="15.9998" fill="#F9766D" fill-opacity="1"/><rect x="2663" y="2208" width="137" height="19.0002" fill="#F9766D" fill-opacity="1"/><rect x="2983" y="2162" width="148" height="16.0002" fill="#F9766D" fill-opacity="1"/><rect x="2712" y="2163" width="149" height="16.0002" fill="#F9766D" fill-opacity="1"/><rect x="2441" y="2210" width="137" height="19" fill="#F9766D" fill-opacity="1"/><rect x="1407" y="2129" width="133" height="16.0002" fill="#F9766D" fill-opacity="1"/><rect x="2230" y="2209" width="153" height="19" fill="#F9766D" fill-opacity="1"/><rect x="2176" y="2173" width="137" height="19.0002" fill="#F9766D" fill-opacity="1"/><rect x="2111" y="2125" width="153" height="19" fill="#F9766D" fill-opacity="1"/><rect x="2317" y="2121" width="149" height="16.0002" fill="#F9766D" fill-opacity="1"/><rect x="1894" y="2089" width="148" height="16.0002" fill="#F9766D" fill-opacity="1"/><rect x="2331" y="2172" width="149" height="15.9998" fill="#F9766D" fill-opacity="1"/><rect x="2221" y="2076" width="148" height="16.0002" fill="#F9766D" fill-opacity="1"/><rect x="1767" y="2832" width="149" height="15.9998" fill="#26BFC5" fill-opacity="1"/><rect x="1684" y="2875" width="149" height="16.9998" fill="#26BFC5" fill-opacity="1"/><rect x="1462" y="2877" width="149" height="16.0002" fill="#26BFC5" fill-opacity="1"/><rect x="1571" y="2827" width="148" height="16.0002" fill="#26BFC5" fill-opacity="1"/><text fill="#000000" fill-opacity="1" font-family="Arial,Arial_MSFontService,sans-serif" font-style="normal" font-variant="normal" font-weight="700" font-stretch="normal" font-size="73" text-anchor="start" direction="ltr" writing-mode="lr-tb" unicode-bidi="normal" text-decoration="none" transform="matrix(1 0 0 1 2613.85 3029)">Output Peak</text><text fill="#000000" fill-opacity="1" font-family="Arial,Arial_MSFontService,sans-serif" font-style="normal" font-variant="normal" font-weight="700" font-stretch="normal" font-size="73" text-anchor="start" direction="ltr" writing-mode="lr-tb" unicode-bidi="normal" text-decoration="none" transform="matrix(1 0 0 1 1408.99 3030)">Output Non</text><text fill="#000000" fill-opacity="1" font-family="Arial,Arial_MSFontService,sans-serif" font-style="normal" font-variant="normal" font-weight="700" font-stretch="normal" font-size="73" text-anchor="start" direction="ltr" writing-mode="lr-tb" unicode-bidi="normal" text-decoration="none" transform="matrix(1 0 0 1 1812.32 3030)">-</text><text fill="#000000" fill-opacity="1" font-family="Arial,Arial_MSFontService,sans-serif" font-style="normal" font-variant="normal" font-weight="700" font-stretch="normal" font-size="73" text-anchor="start" direction="ltr" writing-mode="lr-tb" unicode-bidi="normal" text-decoration="none" transform="matrix(1 0 0 1 1836.96 3030)">Peak</text><rect x="2567" y="2761" width="149" height="16.9998" fill="#26BFC5" fill-opacity="1"/><rect x="2243" y="2874" width="183" height="16.9998" fill="#26BFC5" fill-opacity="1"/><rect x="2496" y="2875" width="137" height="17.9998" fill="#26BFC5" fill-opacity="1"/><rect x="2427" y="2795" width="153" height="20" fill="#26BFC5" fill-opacity="1"/><rect x="2725" y="2716" width="149" height="16.0002" fill="#26BFC5" fill-opacity="1"/><rect x="3056" y="2768" width="140" height="17.0002" fill="#26BFC5" fill-opacity="1"/><rect x="2843" y="2762" width="154" height="19" fill="#26BFC5" fill-opacity="1"/><rect x="2377" y="2760" width="137" height="19" fill="#26BFC5" fill-opacity="1"/><rect x="2319" y="2834" width="148" height="16.0002" fill="#26BFC5" fill-opacity="1"/><rect x="2701" y="2867" width="138" height="19.0002" fill="#26BFC5" fill-opacity="1"/><rect x="2910" y="2853" width="149" height="16.9998" fill="#26BFC5" fill-opacity="1"/><rect x="2917" y="2881" width="133" height="16.0002" fill="#26BFC5" fill-opacity="1"/><rect x="2720" y="2831" width="141" height="16.9998" fill="#26BFC5" fill-opacity="1"/><rect x="2032" y="2858" width="133" height="16.0002" fill="#26BFC5" fill-opacity="1"/><rect x="2347.5" y="2928.5" width="1090" height="16.0002" stroke="#000000" stroke-width="6.875" stroke-linecap="butt" stroke-linejoin="miter" stroke-miterlimit="8" stroke-opacity="1" fill="#F2F2F2" fill-opacity="1"/><rect x="0" y="0" width="1149" height="16.0002" stroke="#000000" stroke-width="6.875" stroke-linecap="butt" stroke-linejoin="miter" stroke-miterlimit="8" stroke-opacity="1" fill="#000000" fill-opacity="1" transform="matrix(1 0 0 -1 1196.5 2943.5)"/><rect x="2916" y="2817" width="140" height="16.9998" fill="#26BFC5" fill-opacity="1"/><rect x="3111" y="2816" width="153" height="19" fill="#26BFC5" fill-opacity="1"/><rect x="3080" y="2881" width="153" height="19" fill="#26BFC5" fill-opacity="1"/><rect x="2702" y="2797" width="154" height="19" fill="#26BFC5" fill-opacity="1"/><text fill="#000000" fill-opacity="1" font-family="Arial,Arial_MSFontService,sans-serif" font-style="normal" font-variant="normal" font-weight="700" font-stretch="normal" font-size="73" text-anchor="start" direction="ltr" writing-mode="lr-tb" unicode-bidi="normal" text-decoration="none" transform="matrix(1 0 0 1 516.512 2867)">Pseudo</text><text fill="#000000" fill-opacity="1" font-family="Arial,Arial_MSFontService,sans-serif" font-style="normal" font-variant="normal" font-weight="700" font-stretch="normal" font-size="73" text-anchor="start" direction="ltr" writing-mode="lr-tb" unicode-bidi="normal" text-decoration="none" transform="matrix(1 0 0 1 780.627 2867)">-</text><text fill="#000000" fill-opacity="1" font-family="Arial,Arial_MSFontService,sans-serif" font-style="normal" font-variant="normal" font-weight="700" font-stretch="normal" font-size="73" text-anchor="start" direction="ltr" writing-mode="lr-tb" unicode-bidi="normal" text-decoration="none" transform="matrix(1 0 0 1 805.262 2867)">bulk</text><text fill="#000000" fill-opacity="1" font-family="Arial,Arial_MSFontService,sans-serif" font-style="normal" font-variant="normal" font-weight="700" font-stretch="normal" font-size="73" text-anchor="start" direction="ltr" writing-mode="lr-tb" unicode-bidi="normal" text-decoration="none" transform="matrix(1 0 0 1 451.2 2955)">Synthetic Reads</text><rect x="1200.5" y="2273.5" width="921" height="21" stroke="#000000" stroke-width="6.875" stroke-linecap="butt" stroke-linejoin="miter" stroke-miterlimit="8" stroke-opacity="1" fill="#F2F2F2" fill-opacity="1"/><rect x="2515.5" y="2274.5" width="923" height="20" stroke="#000000" stroke-width="6.875" stroke-linecap="butt" stroke-linejoin="miter" stroke-miterlimit="8" stroke-opacity="1" fill="#000000" fill-opacity="1"/><rect x="2121.5" y="2274.5" width="394" height="20" stroke="#000000" stroke-width="6.875" stroke-linecap="butt" stroke-linejoin="miter" stroke-miterlimit="8" stroke-opacity="1" fill="#7F7F7F" fill-opacity="1"/><text fill="#000000" fill-opacity="1" font-family="Arial,Arial_MSFontService,sans-serif" font-style="normal" font-variant="normal" font-weight="700" font-stretch="normal" font-size="73" text-anchor="start" direction="ltr" writing-mode="lr-tb" unicode-bidi="normal" text-decoration="none" transform="matrix(1 0 0 1 1447.59 2389)">Input Peak</text><text fill="#000000" fill-opacity="1" font-family="Arial,Arial_MSFontService,sans-serif" font-style="normal" font-variant="normal" font-weight="700" font-stretch="normal" font-size="73" text-anchor="start" direction="ltr" writing-mode="lr-tb" unicode-bidi="normal" text-decoration="none" transform="matrix(1 0 0 1 2738.45 2391)">Input Non</text><text fill="#000000" fill-opacity="1" font-family="Arial,Arial_MSFontService,sans-serif" font-style="normal" font-variant="normal" font-weight="700" font-stretch="normal" font-size="73" text-anchor="start" direction="ltr" writing-mode="lr-tb" unicode-bidi="normal" text-decoration="none" transform="matrix(1 0 0 1 3080.49 2391)">-</text><text fill="#000000" fill-opacity="1" font-family="Arial,Arial_MSFontService,sans-serif" font-style="normal" font-variant="normal" font-weight="700" font-stretch="normal" font-size="73" text-anchor="start" direction="ltr" writing-mode="lr-tb" unicode-bidi="normal" text-decoration="none" transform="matrix(1 0 0 1 3105.12 2391)">Peak</text><text fill="#000000" fill-opacity="1" font-family="Arial,Arial_MSFontService,sans-serif" font-style="normal" font-variant="normal" font-weight="700" font-stretch="normal" font-size="73" text-anchor="start" direction="ltr" writing-mode="lr-tb" unicode-bidi="normal" text-decoration="none" transform="matrix(1 0 0 1 2157.01 2389)">Gray Area</text><path d="M2502 1364.12 2844.84 1364.13 2844.84 1377.88 2502 1377.87ZM2837.96 1350.38 2879.21 1371 2837.96 1391.63Z" fill="#000000" fill-rule="nonzero" fill-opacity="1"/><text fill="#2E75B6" fill-opacity="1" font-family="Arial,Arial_MSFontService,sans-serif" font-style="normal" font-variant="normal" font-weight="700" font-stretch="normal" font-size="73" text-anchor="start" direction="ltr" writing-mode="lr-tb" unicode-bidi="normal" text-decoration="none" transform="matrix(1 0 0 1 2507.38 1321)">scDesign2</text><text fill="#000000" fill-opacity="1" font-family="Arial,Arial_MSFontService,sans-serif" font-style="normal" font-variant="normal" font-weight="700" font-stretch="normal" font-size="73" text-anchor="start" direction="ltr" writing-mode="lr-tb" unicode-bidi="normal" text-decoration="none" transform="matrix(1 0 0 1 2605.66 3879)">Output Peak</text><text fill="#000000" fill-opacity="1" font-family="Arial,Arial_MSFontService,sans-serif" font-style="normal" font-variant="normal" font-weight="700" font-stretch="normal" font-size="73" text-anchor="start" direction="ltr" writing-mode="lr-tb" unicode-bidi="normal" text-decoration="none" transform="matrix(1 0 0 1 1400.8 3879)">Output Non</text><text fill="#000000" fill-opacity="1" font-family="Arial,Arial_MSFontService,sans-serif" font-style="normal" font-variant="normal" font-weight="700" font-stretch="normal" font-size="73" text-anchor="start" direction="ltr" writing-mode="lr-tb" unicode-bidi="normal" text-decoration="none" transform="matrix(1 0 0 1 1804.13 3879)">-</text><text fill="#000000" fill-opacity="1" font-family="Arial,Arial_MSFontService,sans-serif" font-style="normal" font-variant="normal" font-weight="700" font-stretch="normal" font-size="73" text-anchor="start" direction="ltr" writing-mode="lr-tb" unicode-bidi="normal" text-decoration="none" transform="matrix(1 0 0 1 1828.77 3879)">Peak</text><rect x="2339.5" y="3777.5" width="1090" height="17.0002" stroke="#000000" stroke-width="6.875" stroke-linecap="butt" stroke-linejoin="miter" stroke-miterlimit="8" stroke-opacity="1" fill="#F2F2F2" fill-opacity="1"/><rect x="0" y="0" width="1149" height="17.0002" stroke="#000000" stroke-width="6.875" stroke-linecap="butt" stroke-linejoin="miter" stroke-miterlimit="8" stroke-opacity="1" fill="#000000" fill-opacity="1" transform="matrix(1 0 0 -1 1188.5 3793.5)"/></g></svg>